<mxfile host="65bd71144e">
    <diagram id="lsuH3_72xi7yR_XYZ1eK" name="Page-1">
        <mxGraphModel dx="1478" dy="533" grid="1" gridSize="10" guides="1" tooltips="1" connect="1" arrows="1" fold="1" page="0" pageScale="1" pageWidth="850" pageHeight="1100" background="#ffffff" math="0" shadow="0">
            <root>
                <mxCell id="0"/>
                <mxCell id="1" parent="0"/>
                <mxCell id="40" value="" style="rounded=0;whiteSpace=wrap;html=1;fontFamily=Segoe UI;strokeColor=none;" parent="1" vertex="1">
                    <mxGeometry x="-110" y="250" width="1220" height="560" as="geometry"/>
                </mxCell>
                <mxCell id="39" value="" style="rounded=0;whiteSpace=wrap;html=1;dashed=1;dashPattern=1 4;labelBackgroundColor=default;strokeWidth=2;fontSize=14;fontColor=#000000;fillColor=none;strokeColor=#808080;fontFamily=Segoe UI;" parent="1" vertex="1">
                    <mxGeometry x="20" y="280" width="900" height="500" as="geometry"/>
                </mxCell>
                <mxCell id="31" value="" style="group;fillColor=none;fontFamily=Segoe UI;" parent="1" vertex="1" connectable="0">
                    <mxGeometry x="70" y="690" width="710" height="41" as="geometry"/>
                </mxCell>
                <mxCell id="22" value="" style="endArrow=none;html=1;fontSize=14;fontColor=#000099;fontFamily=Segoe UI;" parent="31" edge="1">
                    <mxGeometry width="50" height="50" relative="1" as="geometry">
                        <mxPoint y="21.00999999999999" as="sourcePoint"/>
                        <mxPoint x="710" y="20" as="targetPoint"/>
                    </mxGeometry>
                </mxCell>
                <mxCell id="29" value="" style="endArrow=none;html=1;strokeWidth=1;fontSize=14;fontColor=#000099;fontFamily=Segoe UI;" parent="31" edge="1">
                    <mxGeometry width="50" height="50" relative="1" as="geometry">
                        <mxPoint y="20" as="sourcePoint"/>
                        <mxPoint as="targetPoint"/>
                    </mxGeometry>
                </mxCell>
                <mxCell id="30" value="" style="endArrow=none;html=1;strokeWidth=1;fontSize=14;fontColor=#000099;fontFamily=Segoe UI;" parent="31" edge="1">
                    <mxGeometry width="50" height="50" relative="1" as="geometry">
                        <mxPoint x="710" y="20" as="sourcePoint"/>
                        <mxPoint x="710" as="targetPoint"/>
                    </mxGeometry>
                </mxCell>
                <mxCell id="SYjlbVsFbEoAXCGQWf2b-7" value="" style="rounded=0;whiteSpace=wrap;html=1;strokeWidth=3;fontFamily=Segoe UI;" parent="1" vertex="1">
                    <mxGeometry x="130" y="460" width="620" height="220" as="geometry"/>
                </mxCell>
                <mxCell id="12" value="" style="rounded=0;whiteSpace=wrap;html=1;dashed=1;dashPattern=8 8;fontFamily=Segoe UI;" parent="1" vertex="1">
                    <mxGeometry x="300" y="480" width="280" height="110" as="geometry"/>
                </mxCell>
                <mxCell id="SYjlbVsFbEoAXCGQWf2b-19" style="edgeStyle=orthogonalEdgeStyle;rounded=0;orthogonalLoop=1;jettySize=auto;html=1;entryX=0;entryY=0.5;entryDx=0;entryDy=0;exitX=0.25;exitY=0;exitDx=0;exitDy=0;fontFamily=Segoe UI;" parent="1" source="SYjlbVsFbEoAXCGQWf2b-8" target="SYjlbVsFbEoAXCGQWf2b-12" edge="1">
                    <mxGeometry relative="1" as="geometry"/>
                </mxCell>
                <mxCell id="SYjlbVsFbEoAXCGQWf2b-8" value="Bronze" style="rounded=0;whiteSpace=wrap;html=1;fontStyle=1;fontSize=13;fontFamily=Segoe UI;" parent="1" vertex="1">
                    <mxGeometry x="160" y="503.83" width="110" height="60" as="geometry"/>
                </mxCell>
                <mxCell id="SYjlbVsFbEoAXCGQWf2b-28" style="edgeStyle=orthogonalEdgeStyle;rounded=0;orthogonalLoop=1;jettySize=auto;html=1;entryX=0;entryY=0.5;entryDx=0;entryDy=0;exitX=0.75;exitY=0;exitDx=0;exitDy=0;fontFamily=Segoe UI;" parent="1" source="SYjlbVsFbEoAXCGQWf2b-9" target="50" edge="1">
                    <mxGeometry relative="1" as="geometry">
                        <mxPoint x="588" y="374.5" as="targetPoint"/>
                    </mxGeometry>
                </mxCell>
                <mxCell id="SYjlbVsFbEoAXCGQWf2b-9" value="Silver" style="rounded=0;whiteSpace=wrap;html=1;fontStyle=1;fontSize=13;fontFamily=Segoe UI;" parent="1" vertex="1">
                    <mxGeometry x="450" y="506" width="110" height="60" as="geometry"/>
                </mxCell>
                <mxCell id="27" style="edgeStyle=none;html=1;entryX=0;entryY=0.75;entryDx=0;entryDy=0;strokeWidth=1;fontSize=14;fontColor=#000099;fontFamily=Segoe UI;startArrow=none;" parent="1" source="43" target="SYjlbVsFbEoAXCGQWf2b-14" edge="1">
                    <mxGeometry relative="1" as="geometry"/>
                </mxCell>
                <mxCell id="SYjlbVsFbEoAXCGQWf2b-10" value="Gold" style="rounded=0;whiteSpace=wrap;html=1;fontStyle=1;fontSize=13;fontFamily=Segoe UI;" parent="1" vertex="1">
                    <mxGeometry x="610" y="506" width="110" height="60" as="geometry"/>
                </mxCell>
                <mxCell id="SYjlbVsFbEoAXCGQWf2b-5" value="Lakehouse (Files)" style="shape=image;verticalLabelPosition=bottom;verticalAlign=top;imageAspect=0;aspect=fixed;image=data:image/svg+xml,PHN2ZyB4bWxucz0iaHR0cDovL3d3dy53My5vcmcvMjAwMC9zdmciIGZpbGw9Im5vbmUiIHZpZXdCb3g9IjAgMCAzMiAzMyIgaGVpZ2h0PSIzMyIgd2lkdGg9IjMyIj4mI3hhOzxwYXRoIGZpbGw9ImJsYWNrIiBkPSJNMTIuNjI2IDQuMzkwMDJDMTMuMzk3IDMuNjYxNzQgMTQuNjAzIDMuNjYxNzQgMTUuMzc0IDQuMzkwMDJMMjUuMDYxIDEzLjU0MDNDMjUuNjYwNCAxNC4xMDY0IDI2IDE0Ljg5NDEgMjYgMTUuNzE4MlYxOC42MDYyQzI1Ljc5OSAxOC40MjY0IDI1LjU3NCAxOC4yNzQgMjUuMzMwNyAxOC4xNTM4QzI0LjkxNyAxNy45NDkyIDI0LjQ2MTUgMTcuODQzMiAyNCAxNy44NDM4VjE1LjcxODJDMjQgMTUuNDQzNSAyMy44ODY4IDE1LjE4MSAyMy42ODcgMTQuOTkyMkwxNCA1Ljg0MTk4TDQuMzEyOTkgMTQuOTkyMkM0LjExMzIgMTUuMTgxIDQgMTUuNDQzNSA0IDE1LjcxODJWMjYuODQ2NkM0IDI3LjM5ODMgNC40NDc3MiAyNy44NDU2IDUgMjcuODQ1Nkg4Ljc2MjNDOC4yNzI2NyAyOC4zOTM5IDggMjkuMTA0OCA4IDI5Ljg0MzhMNSAyOS44NDM4QzMuMzQzMTQgMjkuODQzOCAyIDI4LjUwMTkgMiAyNi44NDY2VjE1LjcxODJDMiAxNC44OTQxIDIuMzM5NjEgMTQuMTA2NCAyLjkzODk2IDEzLjU0MDNMMTIuNjI2IDQuMzkwMDJaIi8+JiN4YTs8cGF0aCBmaWxsPSJibGFjayIgZD0iTTI5IDIyLjg0MzdDMjguMzk3OSAyMi44NzczIDI3Ljc5NTIgMjIuNzg3NiAyNy4yMjg5IDIyLjU4QzI2LjY2MjcgMjIuMzcyNSAyNi4xNDQ4IDIyLjA1MTUgMjUuNzA3IDIxLjYzNjdDMjUuNDY1OCAyMS4zOTY0IDI1LjI1OTEgMjEuMTIzOCAyNS4wOTMgMjAuODI2N0MyNS4wNTI2IDIwLjc1MDYgMjUuMDE2MyAyMC42NzI1IDI0Ljk4NCAyMC41OTI3QzI0Ljk0OTMgMjAuNTA1OSAyNC45MDkyIDIwLjQyMTQgMjQuODY0IDIwLjMzOTdDMjQuODQzNyAyMC4zMDUgMjQuODIxNCAyMC4yNzE2IDI0Ljc5NyAyMC4yMzk3QzI0LjY3MTkgMjAuMDc1MyAyNC40OTkgMTkuOTUzNyAyNC4zMDIxIDE5Ljg5MTZDMjQuMTA1MSAxOS44Mjk1IDIzLjg5MzcgMTkuODI5OCAyMy42OTcgMTkuODkyN0gyMy42ODdDMjMuNDU2NiAxOS45NzA5IDIzLjI2MTggMjAuMTI5MiAyMy4xMzggMjAuMzM4N0MyMy4wODYxIDIwLjQzNTMgMjMuMDQxMyAyMC41MzU1IDIzLjAwNCAyMC42Mzg3TDIyLjk5MzUgMjAuNjY0OEMyMi45NjYxIDIwLjczMzIgMjIuOTM4NiAyMC44MDE5IDIyLjkwNCAyMC44NjY3QzIyLjc1NDEgMjEuMTY2IDIyLjU3MDkgMjEuNDQ3NCAyMi4zNTggMjEuNzA1N0MyMi4wNzY1IDIyLjA2MTEgMjEuNzE4MiAyMi4zNDgyIDIxLjMxMDEgMjIuNTQ1NUMyMC45MDE5IDIyLjc0MjkgMjAuNDU0NCAyMi44NDU0IDIwLjAwMSAyMi44NDU0QzE5LjU0NzYgMjIuODQ1NCAxOS4xMDAxIDIyLjc0MjkgMTguNjkxOSAyMi41NDU1QzE4LjI4MzggMjIuMzQ4MiAxNy45MjU1IDIyLjA2MTEgMTcuNjQ0IDIxLjcwNTdDMTcuNDMxMSAyMS40NDc0IDE3LjI0NzkgMjEuMTY2IDE3LjA5OCAyMC44NjY3QzE3LjA3MTEgMjAuODEzNiAxNy4wNDc5IDIwLjc1NzkgMTcuMDI0NiAyMC43MDE5QzE3LjAxNTggMjAuNjgwOCAxNy4wMDcgMjAuNjU5NyAxNi45OTggMjAuNjM4N0MxNi45NjA3IDIwLjUzNTUgMTYuOTE1OSAyMC40MzUzIDE2Ljg2NCAyMC4zMzg3QzE2Ljc0MDIgMjAuMTI5MiAxNi41NDU0IDE5Ljk3MDkgMTYuMzE1IDE5Ljg5MjdIMTYuMzA1QzE2LjEwODMgMTkuODI5OCAxNS44OTY5IDE5LjgyOTUgMTUuNjk5OSAxOS44OTE2QzE1LjUwMyAxOS45NTM3IDE1LjMzMDEgMjAuMDc1MyAxNS4yMDUgMjAuMjM5N0MxNS4xODA2IDIwLjI3MTYgMTUuMTU4MyAyMC4zMDUgMTUuMTM4IDIwLjMzOTdDMTUuMDkyOCAyMC40MjE0IDE1LjA1MjcgMjAuNTA1OSAxNS4wMTggMjAuNTkyN0MxNC45ODU3IDIwLjY3MjUgMTQuOTQ5NCAyMC43NTA2IDE0LjkwOSAyMC44MjY3QzE0Ljc0MjkgMjEuMTIzOCAxNC41MzYyIDIxLjM5NjQgMTQuMjk1IDIxLjYzNjdDMTMuODU3IDIyLjA1MTcgMTMuMzM4NyAyMi4zNzI5IDEyLjc3MjEgMjIuNTgwNEMxMi4yMDU1IDIyLjc4OCAxMS42MDI1IDIyLjg3NzYgMTEgMjIuODQzN0MxMC43MzQ4IDIyLjg0MzcgMTAuNDgwNCAyMi45NDkgMTAuMjkyOSAyMy4xMzY2QzEwLjEwNTQgMjMuMzI0MSAxMCAyMy41Nzg1IDEwIDIzLjg0MzdDMTAgMjQuMTA4OSAxMC4xMDU0IDI0LjM2MzIgMTAuMjkyOSAyNC41NTA4QzEwLjQ4MDQgMjQuNzM4MyAxMC43MzQ4IDI0Ljg0MzcgMTEgMjQuODQzN0MxMS44NjUgMjQuODc3OSAxMi43Mjc5IDI0LjczNjcgMTMuNTM2OSAyNC40Mjg2QzE0LjM0NTggMjQuMTIwNCAxNS4wODQgMjMuNjUxNyAxNS43MDcgMjMuMDUwN0MxNS43OTQgMjIuOTYzNyAxNS44NzYgMjIuODc2NyAxNS45NTIgMjIuNzg5N0MxNi4wMDEgMjIuODU0NyAxNi4wNTIgMjIuOTE4NyAxNi4xMDcgMjIuOTgzN0MxNi41NzU2IDIzLjU2NTEgMTcuMTY4NiAyNC4wMzQyIDE3Ljg0MjIgMjQuMzU2NUMxOC41MTU5IDI0LjY3ODggMTkuMjUzMiAyNC44NDYxIDIwIDI0Ljg0NjFDMjAuNzQ2OCAyNC44NDYxIDIxLjQ4NDEgMjQuNjc4OCAyMi4xNTc4IDI0LjM1NjVDMjIuODMxNCAyNC4wMzQyIDIzLjQyNDQgMjMuNTY1MSAyMy44OTMgMjIuOTgzN0MyMy45NDcgMjIuOTE4NyAyMy45OTkgMjIuODU0NyAyNC4wNDggMjIuNzg5N0MyNC4xMjQgMjIuODc2NyAyNC4yMDYgMjIuOTYzNyAyNC4yOTMgMjMuMDUwN0MyNC45MTYgMjMuNjUxNyAyNS42NTQyIDI0LjEyMDQgMjYuNDYzMSAyNC40Mjg2QzI3LjI3MjEgMjQuNzM2NyAyOC4xMzUgMjQuODc3OSAyOSAyNC44NDM3QzI5LjI2NTIgMjQuODQzNyAyOS41MTk2IDI0LjczODMgMjkuNzA3MSAyNC41NTA4QzI5Ljg5NDYgMjQuMzYzMiAzMCAyNC4xMDg5IDMwIDIzLjg0MzdDMzAgMjMuNTc4NSAyOS44OTQ2IDIzLjMyNDEgMjkuNzA3MSAyMy4xMzY2QzI5LjUxOTYgMjIuOTQ5IDI5LjI2NTIgMjIuODQzNyAyOSAyMi44NDM3WiIvPiYjeGE7PHBhdGggZmlsbD0iYmxhY2siIGQ9Ik0yOSAyOC44NDM3QzI4LjM5NzkgMjguODc3MyAyNy43OTUyIDI4Ljc4NzYgMjcuMjI4OSAyOC41OEMyNi42NjI3IDI4LjM3MjUgMjYuMTQ0OCAyOC4wNTE1IDI1LjcwNyAyNy42MzY3QzI1LjQ2NTggMjcuMzk2NCAyNS4yNTkxIDI3LjEyMzggMjUuMDkzIDI2LjgyNjdDMjUuMDUyNiAyNi43NTA2IDI1LjAxNjMgMjYuNjcyNSAyNC45ODQgMjYuNTkyN0MyNC45NDkzIDI2LjUwNTkgMjQuOTA5MiAyNi40MjE0IDI0Ljg2NCAyNi4zMzk3QzI0Ljg0MzcgMjYuMzA1IDI0LjgyMTQgMjYuMjcxNiAyNC43OTcgMjYuMjM5N0MyNC42NzE5IDI2LjA3NTMgMjQuNDk5IDI1Ljk1MzcgMjQuMzAyMSAyNS44OTE2QzI0LjEwNTEgMjUuODI5NSAyMy44OTM3IDI1LjgyOTggMjMuNjk3IDI1Ljg5MjdIMjMuNjg3QzIzLjQ1NjYgMjUuOTcwOSAyMy4yNjE4IDI2LjEyOTIgMjMuMTM4IDI2LjMzODdDMjMuMDg2MSAyNi40MzUzIDIzLjA0MTMgMjYuNTM1NSAyMy4wMDQgMjYuNjM4N0wyMi45OTM1IDI2LjY2NDhDMjIuOTY2MSAyNi43MzMyIDIyLjkzODYgMjYuODAxOSAyMi45MDQgMjYuODY2N0MyMi43NTQxIDI3LjE2NiAyMi41NzA5IDI3LjQ0NzQgMjIuMzU4IDI3LjcwNTdDMjIuMDc2NSAyOC4wNjExIDIxLjcxODIgMjguMzQ4MiAyMS4zMTAxIDI4LjU0NTVDMjAuOTAxOSAyOC43NDI5IDIwLjQ1NDQgMjguODQ1NCAyMC4wMDEgMjguODQ1NEMxOS41NDc2IDI4Ljg0NTQgMTkuMTAwMSAyOC43NDI5IDE4LjY5MTkgMjguNTQ1NUMxOC4yODM4IDI4LjM0ODIgMTcuOTI1NSAyOC4wNjExIDE3LjY0NCAyNy43MDU3QzE3LjQzMTEgMjcuNDQ3NCAxNy4yNDc5IDI3LjE2NiAxNy4wOTggMjYuODY2N0MxNy4wNzExIDI2LjgxMzYgMTcuMDQ3OSAyNi43NTc5IDE3LjAyNDYgMjYuNzAxOUMxNy4wMTU4IDI2LjY4MDggMTcuMDA3IDI2LjY1OTcgMTYuOTk4IDI2LjYzODdDMTYuOTYwNyAyNi41MzU1IDE2LjkxNTkgMjYuNDM1MyAxNi44NjQgMjYuMzM4N0MxNi43NDAyIDI2LjEyOTIgMTYuNTQ1NCAyNS45NzA5IDE2LjMxNSAyNS44OTI3SDE2LjMwNUMxNi4xMDgzIDI1LjgyOTggMTUuODk2OSAyNS44Mjk1IDE1LjY5OTkgMjUuODkxNkMxNS41MDMgMjUuOTUzNyAxNS4zMzAxIDI2LjA3NTMgMTUuMjA1IDI2LjIzOTdDMTUuMTgwNiAyNi4yNzE2IDE1LjE1ODMgMjYuMzA1IDE1LjEzOCAyNi4zMzk3QzE1LjA5MjggMjYuNDIxNCAxNS4wNTI3IDI2LjUwNTkgMTUuMDE4IDI2LjU5MjdDMTQuOTg1NyAyNi42NzI1IDE0Ljk0OTQgMjYuNzUwNiAxNC45MDkgMjYuODI2N0MxNC43NDI5IDI3LjEyMzggMTQuNTM2MiAyNy4zOTY0IDE0LjI5NSAyNy42MzY3QzEzLjg1NyAyOC4wNTE3IDEzLjMzODcgMjguMzcyOSAxMi43NzIxIDI4LjU4MDRDMTIuMjA1NSAyOC43ODggMTEuNjAyNSAyOC44Nzc2IDExIDI4Ljg0MzdDMTAuNzM0OCAyOC44NDM3IDEwLjQ4MDQgMjguOTQ5IDEwLjI5MjkgMjkuMTM2NkMxMC4xMDU0IDI5LjMyNDEgMTAgMjkuNTc4NSAxMCAyOS44NDM3QzEwIDMwLjEwODkgMTAuMTA1NCAzMC4zNjMyIDEwLjI5MjkgMzAuNTUwOEMxMC40ODA0IDMwLjczODMgMTAuNzM0OCAzMC44NDM3IDExIDMwLjg0MzdDMTEuODY1IDMwLjg3NzkgMTIuNzI3OSAzMC43MzY3IDEzLjUzNjkgMzAuNDI4NkMxNC4zNDU4IDMwLjEyMDQgMTUuMDg0IDI5LjY1MTcgMTUuNzA3IDI5LjA1MDdDMTUuNzk0IDI4Ljk2MzcgMTUuODc2IDI4Ljg3NjcgMTUuOTUyIDI4Ljc4OTdDMTYuMDAxIDI4Ljg1NDcgMTYuMDUyIDI4LjkxODcgMTYuMTA3IDI4Ljk4MzdDMTYuNTc1NiAyOS41NjUxIDE3LjE2ODYgMzAuMDM0MiAxNy44NDIyIDMwLjM1NjVDMTguNTE1OSAzMC42Nzg4IDE5LjI1MzIgMzAuODQ2MSAyMCAzMC44NDYxQzIwLjc0NjggMzAuODQ2MSAyMS40ODQxIDMwLjY3ODggMjIuMTU3OCAzMC4zNTY1QzIyLjgzMTQgMzAuMDM0MiAyMy40MjQ0IDI5LjU2NTEgMjMuODkzIDI4Ljk4MzdDMjMuOTQ3IDI4LjkxODcgMjMuOTk5IDI4Ljg1NDcgMjQuMDQ4IDI4Ljc4OTdDMjQuMTI0IDI4Ljg3NjcgMjQuMjA2IDI4Ljk2MzcgMjQuMjkzIDI5LjA1MDdDMjQuOTE2IDI5LjY1MTcgMjUuNjU0MiAzMC4xMjA0IDI2LjQ2MzEgMzAuNDI4NkMyNy4yNzIxIDMwLjczNjcgMjguMTM1IDMwLjg3NzkgMjkgMzAuODQzN0MyOS4yNjUyIDMwLjg0MzcgMjkuNTE5NiAzMC43MzgzIDI5LjcwNzEgMzAuNTUwOEMyOS44OTQ2IDMwLjM2MzIgMzAgMzAuMTA4OSAzMCAyOS44NDM3QzMwIDI5LjU3ODUgMjkuODk0NiAyOS4zMjQxIDI5LjcwNzEgMjkuMTM2NkMyOS41MTk2IDI4Ljk0OSAyOS4yNjUyIDI4Ljg0MzcgMjkgMjguODQzN1oiLz4mI3hhOzwvc3ZnPg==;imageBackground=default;fontFamily=Segoe UI;" parent="1" vertex="1">
                    <mxGeometry x="170" y="550.33" width="32" height="33" as="geometry"/>
                </mxCell>
                <mxCell id="SYjlbVsFbEoAXCGQWf2b-20" value="Clean Data" style="edgeStyle=orthogonalEdgeStyle;rounded=0;orthogonalLoop=1;jettySize=auto;html=1;entryX=0.25;entryY=0;entryDx=0;entryDy=0;fontFamily=Segoe UI;" parent="1" source="SYjlbVsFbEoAXCGQWf2b-12" target="SYjlbVsFbEoAXCGQWf2b-9" edge="1">
                    <mxGeometry x="-0.1238" relative="1" as="geometry">
                        <mxPoint as="offset"/>
                    </mxGeometry>
                </mxCell>
                <mxCell id="SYjlbVsFbEoAXCGQWf2b-27" value="Bad data" style="edgeStyle=orthogonalEdgeStyle;rounded=0;orthogonalLoop=1;jettySize=auto;html=1;fontFamily=Segoe UI;" parent="1" source="SYjlbVsFbEoAXCGQWf2b-12" target="SYjlbVsFbEoAXCGQWf2b-23" edge="1">
                    <mxGeometry x="0.0747" relative="1" as="geometry">
                        <mxPoint as="offset"/>
                    </mxGeometry>
                </mxCell>
                <mxCell id="SYjlbVsFbEoAXCGQWf2b-12" value="Clean &amp;&#10;Standardize&#10;(Spark)" style="shape=image;verticalLabelPosition=bottom;verticalAlign=top;imageAspect=0;aspect=fixed;image=data:image/svg+xml,PHN2ZyB4bWxucz0iaHR0cDovL3d3dy53My5vcmcvMjAwMC9zdmciIGZpbGw9Im5vbmUiIHZpZXdCb3g9IjAgMCAzMiAzMyIgaGVpZ2h0PSIzMyIgd2lkdGg9IjMyIj4mI3hhOzxwYXRoIGZpbGw9ImJsYWNrIiBkPSJNOCA3LjkzNzU2QzggNy4xMDkxMyA4LjY3MTU3IDYuNDM3NTYgOS41IDYuNDM3NTZIMjEuNUMyMi4zMjg0IDYuNDM3NTYgMjMgNy4xMDkxMyAyMyA3LjkzNzU2VjEwLjkzNzZDMjMgMTEuNzY2IDIyLjMyODQgMTIuNDM3NiAyMS41IDEyLjQzNzZIOS41QzguNjcxNTcgMTIuNDM3NiA4IDExLjc2NiA4IDEwLjkzNzZWNy45Mzc1NlpNMTAgOC40Mzc1NlYxMC40Mzc2SDIxVjguNDM3NTZIMTBaTTQgNS42ODc1NkM0IDMuODkyNjMgNS40NTUwOCAyLjQzNzU2IDcuMjUgMi40Mzc1NkgyMy43NUMyNS41NDQ5IDIuNDM3NTYgMjcgMy44OTI2NCAyNyA1LjY4NzU2VjI3LjE4NzZDMjcgMjguOTgyNSAyNS41NDQ5IDMwLjQzNzYgMjMuNzUgMzAuNDM3Nkg3LjI1QzUuNDU1MDcgMzAuNDM3NiA0IDI4Ljk4MjUgNCAyNy4xODc2VjUuNjg3NTZaTTcuMjUgNC40Mzc1NkM2LjU1OTY0IDQuNDM3NTYgNiA0Ljk5NzIgNiA1LjY4NzU2VjI3LjE4NzZDNiAyNy44Nzc5IDYuNTU5NjQgMjguNDM3NiA3LjI1IDI4LjQzNzZIMjMuNzVDMjQuNDQwNCAyOC40Mzc2IDI1IDI3Ljg3NzkgMjUgMjcuMTg3NlY1LjY4NzU2QzI1IDQuOTk3MjEgMjQuNDQwNCA0LjQzNzU2IDIzLjc1IDQuNDM3NTZINy4yNVpNMjkuMjUgOC40Mzc1NkgyOFYxMi40Mzc2SDI5LjI1QzI5LjY2NDIgMTIuNDM3NiAzMCAxMi4xMDE4IDMwIDExLjY4NzZWOS4xODc1NkMzMCA4Ljc3MzM1IDI5LjY2NDIgOC40Mzc1NiAyOS4yNSA4LjQzNzU2Wk0yOCAxNC40Mzc2SDI5LjI1QzI5LjY2NDIgMTQuNDM3NiAzMCAxNC43NzMzIDMwIDE1LjE4NzZWMTcuNjg3NkMzMCAxOC4xMDE4IDI5LjY2NDIgMTguNDM3NiAyOS4yNSAxOC40Mzc2SDI4VjE0LjQzNzZaTTI5LjI1IDIwLjQzNzZIMjhWMjQuNDM3NkgyOS4yNUMyOS42NjQyIDI0LjQzNzYgMzAgMjQuMTAxOCAzMCAyMy42ODc2VjIxLjE4NzZDMzAgMjAuNzczMyAyOS42NjQyIDIwLjQzNzYgMjkuMjUgMjAuNDM3NloiLz4mI3hhOzwvc3ZnPg==;fontSize=13;fontStyle=1;fontFamily=Segoe UI;" parent="1" vertex="1">
                    <mxGeometry x="260" y="358" width="32" height="33" as="geometry"/>
                </mxCell>
                <mxCell id="SYjlbVsFbEoAXCGQWf2b-31" style="edgeStyle=orthogonalEdgeStyle;rounded=0;orthogonalLoop=1;jettySize=auto;html=1;fontFamily=Segoe UI;" parent="1" source="SYjlbVsFbEoAXCGQWf2b-13" target="SYjlbVsFbEoAXCGQWf2b-8" edge="1">
                    <mxGeometry relative="1" as="geometry"/>
                </mxCell>
                <mxCell id="SYjlbVsFbEoAXCGQWf2b-13" value="ADLS Gen2" style="image;aspect=fixed;html=1;points=[];align=center;fontSize=12;image=img/lib/azure2/general/Blob_Block.svg;fontFamily=Segoe UI;" parent="1" vertex="1">
                    <mxGeometry x="-60" y="511.83" width="55" height="44" as="geometry"/>
                </mxCell>
                <mxCell id="SYjlbVsFbEoAXCGQWf2b-14" value="PowerBI Report" style="shape=image;verticalLabelPosition=bottom;verticalAlign=top;imageAspect=0;aspect=fixed;image=data:image/svg+xml,PHN2ZyB4bWxucz0iaHR0cDovL3d3dy53My5vcmcvMjAwMC9zdmciIGlkPSJzdmcxOTY1NSIgdmVyc2lvbj0iMS4xIiBmaWxsPSJub25lIiB2aWV3Qm94PSIwIDAgMTIwMCAxNjAwIiBoZWlnaHQ9IjE2MDAiIHdpZHRoPSIxMjAwIj4mI3hhOyAgPG1ldGFkYXRhIGlkPSJtZXRhZGF0YTE5NjU5Ij4mI3hhOyAgICAmI3hhOyAgICAgICYjeGE7ICAgICAgICBpbWFnZS9zdmcreG1sJiN4YTsgICAgICAgICYjeGE7ICAgICAgICAmI3hhOyAgICAgICYjeGE7ICAgICYjeGE7ICA8L21ldGFkYXRhPiYjeGE7ICA8bWFzayBoZWlnaHQ9IjE2MDAiIHdpZHRoPSIxMjAwIiB5PSIwIiB4PSIyMDAiIG1hc2tVbml0cz0idXNlclNwYWNlT25Vc2UiIGlkPSJtYXNrMCI+JiN4YTsgICAgPHBhdGggaWQ9InBhdGgxOTYwMCIgZmlsbD0iI2ZmZmZmZiIgZD0ibSAxMzMzLjI1LDAgYyAzNi44NiwwIDY2Ljc1LDI5Ljg4NDkgNjYuNzUsNjYuNzUgdiAxNDY2LjUgYyAwLDM2Ljg2IC0yOS44OSw2Ni43NSAtNjYuNzUsNjYuNzUgSCAyNjYuNjY3IEMgMjI5Ljg0OCwxNjAwIDIwMCwxNTcwLjE1IDIwMCwxNTMzLjMzIFYgODY2LjY2NyBDIDIwMCw4MjkuODQ4IDIyOS44NDgsODAwIDI2Ni42NjcsODAwIEggNTI1IFYgNDY2LjY2NyBDIDUyNSw0MjkuODQ4IDU1NC44NDgsNDAwIDU5MS42NjcsNDAwIEggODUwIFYgNjYuNzUgQyA4NTAsMjkuODg1IDg3OS44ODUsMCA5MTYuNzUsMCBaIi8+JiN4YTsgIDwvbWFzaz4mI3hhOyAgPGcgdHJhbnNmb3JtPSJ0cmFuc2xhdGUoLTIwMCkiIGlkPSJnMTk2MTEiIG1hc2s9InVybCgjbWFzazApIj4mI3hhOyAgICA8cGF0aCBzdHlsZT0iZmlsbDp1cmwoI3BhaW50MF9saW5lYXIpIiBpZD0icGF0aDE5NjAzIiBmaWxsPSJ1cmwoI3BhaW50MF9saW5lYXIpIiBkPSJtIDE0MDAsNjYuNzUgdiAxNDY2LjUgYyAwLDM2Ljg2IC0yOS44OSw2Ni43NSAtNjYuNzUsNjYuNzUgSCA5MTYuNzUgQyA4NzkuODg1LDE2MDAgODUwLDE1NzAuMTEgODUwLDE1MzMuMjUgViA2Ni43NSBDIDg1MCwyOS44ODUgODc5Ljg4NSwwIDkxNi43NSwwIGggNDE2LjUgYyAzNi44NywwIDY2Ljc1LDI5Ljg4NDkgNjYuNzUsNjYuNzUgeiIvPiYjeGE7ICAgIDxnIGlkPSJnMTk2MDciIGZpbHRlcj0idXJsKCNmaWx0ZXIwX2RkKSI+JiN4YTsgICAgICA8cGF0aCBzdHlsZT0iZmlsbDp1cmwoI3BhaW50MV9saW5lYXIpIiBpZD0icGF0aDE5NjA1IiBmaWxsPSJ1cmwoI3BhaW50MV9saW5lYXIpIiBkPSJNIDEwNzUsNDY2LjY2NyBWIDE2MDAgSCA1MjUgViA0NjYuNjY3IEMgNTI1LDQyOS44NDggNTU0Ljg0OCw0MDAgNTkxLjY2Nyw0MDAgaCA0MTYuNjYzIGMgMzYuODIsMCA2Ni42NywyOS44NDggNjYuNjcsNjYuNjY3IHoiLz4mI3hhOyAgICA8L2c+JiN4YTsgICAgPHBhdGggc3R5bGU9ImZpbGw6dXJsKCNwYWludDJfbGluZWFyKSIgaWQ9InBhdGgxOTYwOSIgZmlsbD0idXJsKCNwYWludDJfbGluZWFyKSIgZD0ibSAyMDAsODY2LjY2NyB2IDY2Ni42NjMgYyAwLDM2LjgyIDI5Ljg0OCw2Ni42NyA2Ni42NjcsNjYuNjcgSCA3NTAgViA4NjYuNjY3IEMgNzUwLDgyOS44NDggNzIwLjE1Miw4MDAgNjgzLjMzMyw4MDAgSCAyNjYuNjY3IEMgMjI5Ljg0OCw4MDAgMjAwLDgyOS44NDggMjAwLDg2Ni42NjcgWiIvPiYjeGE7ICA8L2c+JiN4YTsgIDxkZWZzIGlkPSJkZWZzMTk2NTMiPiYjeGE7ICAgIDxmaWx0ZXIgY29sb3ItaW50ZXJwb2xhdGlvbi1maWx0ZXJzPSJzUkdCIiBmaWx0ZXJVbml0cz0idXNlclNwYWNlT25Vc2UiIGhlaWdodD0iMTIxMC42NyIgd2lkdGg9IjU2MC42NjY5OSIgeT0iMzk2IiB4PSI1MTkuNjY2OTkiIGlkPSJmaWx0ZXIwX2RkIj4mI3hhOyAgICAgIDxmZUZsb29kIGlkPSJmZUZsb29kMTk2MTMiIHJlc3VsdD0iQmFja2dyb3VuZEltYWdlRml4IiBmbG9vZC1vcGFjaXR5PSIwIi8+JiN4YTsgICAgICA8ZmVDb2xvck1hdHJpeCBpZD0iZmVDb2xvck1hdHJpeDE5NjE1IiB2YWx1ZXM9IjAgMCAwIDAgMCAwIDAgMCAwIDAgMCAwIDAgMCAwIDAgMCAwIDEyNyAwIiB0eXBlPSJtYXRyaXgiIGluPSJTb3VyY2VBbHBoYSIvPiYjeGE7ICAgICAgPGZlT2Zmc2V0IGlkPSJmZU9mZnNldDE5NjE3IiBkeT0iMC4yNTMzMzMiLz4mI3hhOyAgICAgIDxmZUdhdXNzaWFuQmx1ciBpZD0iZmVHYXVzc2lhbkJsdXIxOTYxOSIgc3RkRGV2aWF0aW9uPSIwLjI1MzMzMyIvPiYjeGE7ICAgICAgPGZlQ29sb3JNYXRyaXggaWQ9ImZlQ29sb3JNYXRyaXgxOTYyMSIgdmFsdWVzPSIwIDAgMCAwIDAgMCAwIDAgMCAwIDAgMCAwIDAgMCAwIDAgMCAwLjIgMCIgdHlwZT0ibWF0cml4Ii8+JiN4YTsgICAgICA8ZmVCbGVuZCBpZD0iZmVCbGVuZDE5NjIzIiByZXN1bHQ9ImVmZmVjdDFfZHJvcFNoYWRvdyIgaW4yPSJCYWNrZ3JvdW5kSW1hZ2VGaXgiIG1vZGU9Im5vcm1hbCIvPiYjeGE7ICAgICAgPGZlQ29sb3JNYXRyaXggaWQ9ImZlQ29sb3JNYXRyaXgxOTYyNSIgdmFsdWVzPSIwIDAgMCAwIDAgMCAwIDAgMCAwIDAgMCAwIDAgMCAwIDAgMCAxMjcgMCIgdHlwZT0ibWF0cml4IiBpbj0iU291cmNlQWxwaGEiLz4mI3hhOyAgICAgIDxmZU9mZnNldCBpZD0iZmVPZmZzZXQxOTYyNyIgZHk9IjEuMzMzMzMiLz4mI3hhOyAgICAgIDxmZUdhdXNzaWFuQmx1ciBpZD0iZmVHYXVzc2lhbkJsdXIxOTYyOSIgc3RkRGV2aWF0aW9uPSIyLjY2NjY3Ii8+JiN4YTsgICAgICA8ZmVDb2xvck1hdHJpeCBpZD0iZmVDb2xvck1hdHJpeDE5NjMxIiB2YWx1ZXM9IjAgMCAwIDAgMCAwIDAgMCAwIDAgMCAwIDAgMCAwIDAgMCAwIDAuMTggMCIgdHlwZT0ibWF0cml4Ii8+JiN4YTsgICAgICA8ZmVCbGVuZCBpZD0iZmVCbGVuZDE5NjMzIiByZXN1bHQ9ImVmZmVjdDJfZHJvcFNoYWRvdyIgaW4yPSJlZmZlY3QxX2Ryb3BTaGFkb3ciIG1vZGU9Im5vcm1hbCIvPiYjeGE7ICAgICAgPGZlQmxlbmQgaWQ9ImZlQmxlbmQxOTYzNSIgcmVzdWx0PSJzaGFwZSIgaW4yPSJlZmZlY3QyX2Ryb3BTaGFkb3ciIGluPSJTb3VyY2VHcmFwaGljIiBtb2RlPSJub3JtYWwiLz4mI3hhOyAgICA8L2ZpbHRlcj4mI3hhOyAgICA8bGluZWFyR3JhZGllbnQgZ3JhZGllbnRVbml0cz0idXNlclNwYWNlT25Vc2UiIHkyPSIxNTA3LjE1IiB4Mj0iMTQ0Ny44MTk5IiB5MT0iLTEuNDk2MzJlLTA1IiB4MT0iNzU4LjMzMzAxIiBpZD0icGFpbnQwX2xpbmVhciI+JiN4YTsgICAgICA8c3RvcCBpZD0ic3RvcDE5NjM4IiBzdG9wLWNvbG9yPSIjRTZBRDEwIi8+JiN4YTsgICAgICA8c3RvcCBpZD0ic3RvcDE5NjQwIiBzdG9wLWNvbG9yPSIjQzg3RTBFIiBvZmZzZXQ9IjEiLz4mI3hhOyAgICA8L2xpbmVhckdyYWRpZW50PiYjeGE7ICAgIDxsaW5lYXJHcmFkaWVudCBncmFkaWVudFVuaXRzPSJ1c2VyU3BhY2VPblVzZSIgeTI9IjE1NjEuNjciIHgyPSIxMTA1Ljc5IiB5MT0iNDAwIiB4MT0iNTI0Ljk1NTAyIiBpZD0icGFpbnQxX2xpbmVhciI+JiN4YTsgICAgICA8c3RvcCBpZD0ic3RvcDE5NjQzIiBzdG9wLWNvbG9yPSIjRjZENzUxIi8+JiN4YTsgICAgICA8c3RvcCBpZD0ic3RvcDE5NjQ1IiBzdG9wLWNvbG9yPSIjRTZBRDEwIiBvZmZzZXQ9IjEiLz4mI3hhOyAgICA8L2xpbmVhckdyYWRpZW50PiYjeGE7ICAgIDxsaW5lYXJHcmFkaWVudCBncmFkaWVudFVuaXRzPSJ1c2VyU3BhY2VPblVzZSIgeTI9IjE1ODEuNjgwMSIgeDI9IjUxOS43ODQiIHkxPSI4MDAiIHgxPSIxOTkuOTU1IiBpZD0icGFpbnQyX2xpbmVhciI+JiN4YTsgICAgICA8c3RvcCBpZD0ic3RvcDE5NjQ4IiBzdG9wLWNvbG9yPSIjRjlFNTg5Ii8+JiN4YTsgICAgICA8c3RvcCBpZD0ic3RvcDE5NjUwIiBzdG9wLWNvbG9yPSIjRjZENzUxIiBvZmZzZXQ9IjEiLz4mI3hhOyAgICA8L2xpbmVhckdyYWRpZW50PiYjeGE7ICA8L2RlZnM+JiN4YTs8L3N2Zz4=;fontFamily=Segoe UI;" parent="1" vertex="1">
                    <mxGeometry x="840" y="497.00000000000006" width="40" height="53.33" as="geometry"/>
                </mxCell>
                <mxCell id="SYjlbVsFbEoAXCGQWf2b-29" style="edgeStyle=orthogonalEdgeStyle;rounded=0;orthogonalLoop=1;jettySize=auto;html=1;entryX=0.5;entryY=0;entryDx=0;entryDy=0;fontFamily=Segoe UI;" parent="1" target="SYjlbVsFbEoAXCGQWf2b-10" edge="1">
                    <mxGeometry relative="1" as="geometry">
                        <Array as="points">
                            <mxPoint x="665" y="377"/>
                        </Array>
                        <mxPoint x="620" y="377" as="sourcePoint"/>
                    </mxGeometry>
                </mxCell>
                <mxCell id="SYjlbVsFbEoAXCGQWf2b-18" value="Lakehouse (Tables)" style="shape=image;verticalLabelPosition=bottom;verticalAlign=top;imageAspect=0;aspect=fixed;image=data:image/svg+xml,PHN2ZyB4bWxucz0iaHR0cDovL3d3dy53My5vcmcvMjAwMC9zdmciIGZpbGw9Im5vbmUiIHZpZXdCb3g9IjAgMCAzMiAzMyIgaGVpZ2h0PSIzMyIgd2lkdGg9IjMyIj4mI3hhOzxwYXRoIGZpbGw9ImJsYWNrIiBkPSJNMTIuNjI2IDQuMzkwMDJDMTMuMzk3IDMuNjYxNzQgMTQuNjAzIDMuNjYxNzQgMTUuMzc0IDQuMzkwMDJMMjUuMDYxIDEzLjU0MDNDMjUuNjYwNCAxNC4xMDY0IDI2IDE0Ljg5NDEgMjYgMTUuNzE4MlYxOC42MDYyQzI1Ljc5OSAxOC40MjY0IDI1LjU3NCAxOC4yNzQgMjUuMzMwNyAxOC4xNTM4QzI0LjkxNyAxNy45NDkyIDI0LjQ2MTUgMTcuODQzMiAyNCAxNy44NDM4VjE1LjcxODJDMjQgMTUuNDQzNSAyMy44ODY4IDE1LjE4MSAyMy42ODcgMTQuOTkyMkwxNCA1Ljg0MTk4TDQuMzEyOTkgMTQuOTkyMkM0LjExMzIgMTUuMTgxIDQgMTUuNDQzNSA0IDE1LjcxODJWMjYuODQ2NkM0IDI3LjM5ODMgNC40NDc3MiAyNy44NDU2IDUgMjcuODQ1Nkg4Ljc2MjNDOC4yNzI2NyAyOC4zOTM5IDggMjkuMTA0OCA4IDI5Ljg0MzhMNSAyOS44NDM4QzMuMzQzMTQgMjkuODQzOCAyIDI4LjUwMTkgMiAyNi44NDY2VjE1LjcxODJDMiAxNC44OTQxIDIuMzM5NjEgMTQuMTA2NCAyLjkzODk2IDEzLjU0MDNMMTIuNjI2IDQuMzkwMDJaIi8+JiN4YTs8cGF0aCBmaWxsPSJibGFjayIgZD0iTTI5IDIyLjg0MzdDMjguMzk3OSAyMi44NzczIDI3Ljc5NTIgMjIuNzg3NiAyNy4yMjg5IDIyLjU4QzI2LjY2MjcgMjIuMzcyNSAyNi4xNDQ4IDIyLjA1MTUgMjUuNzA3IDIxLjYzNjdDMjUuNDY1OCAyMS4zOTY0IDI1LjI1OTEgMjEuMTIzOCAyNS4wOTMgMjAuODI2N0MyNS4wNTI2IDIwLjc1MDYgMjUuMDE2MyAyMC42NzI1IDI0Ljk4NCAyMC41OTI3QzI0Ljk0OTMgMjAuNTA1OSAyNC45MDkyIDIwLjQyMTQgMjQuODY0IDIwLjMzOTdDMjQuODQzNyAyMC4zMDUgMjQuODIxNCAyMC4yNzE2IDI0Ljc5NyAyMC4yMzk3QzI0LjY3MTkgMjAuMDc1MyAyNC40OTkgMTkuOTUzNyAyNC4zMDIxIDE5Ljg5MTZDMjQuMTA1MSAxOS44Mjk1IDIzLjg5MzcgMTkuODI5OCAyMy42OTcgMTkuODkyN0gyMy42ODdDMjMuNDU2NiAxOS45NzA5IDIzLjI2MTggMjAuMTI5MiAyMy4xMzggMjAuMzM4N0MyMy4wODYxIDIwLjQzNTMgMjMuMDQxMyAyMC41MzU1IDIzLjAwNCAyMC42Mzg3TDIyLjk5MzUgMjAuNjY0OEMyMi45NjYxIDIwLjczMzIgMjIuOTM4NiAyMC44MDE5IDIyLjkwNCAyMC44NjY3QzIyLjc1NDEgMjEuMTY2IDIyLjU3MDkgMjEuNDQ3NCAyMi4zNTggMjEuNzA1N0MyMi4wNzY1IDIyLjA2MTEgMjEuNzE4MiAyMi4zNDgyIDIxLjMxMDEgMjIuNTQ1NUMyMC45MDE5IDIyLjc0MjkgMjAuNDU0NCAyMi44NDU0IDIwLjAwMSAyMi44NDU0QzE5LjU0NzYgMjIuODQ1NCAxOS4xMDAxIDIyLjc0MjkgMTguNjkxOSAyMi41NDU1QzE4LjI4MzggMjIuMzQ4MiAxNy45MjU1IDIyLjA2MTEgMTcuNjQ0IDIxLjcwNTdDMTcuNDMxMSAyMS40NDc0IDE3LjI0NzkgMjEuMTY2IDE3LjA5OCAyMC44NjY3QzE3LjA3MTEgMjAuODEzNiAxNy4wNDc5IDIwLjc1NzkgMTcuMDI0NiAyMC43MDE5QzE3LjAxNTggMjAuNjgwOCAxNy4wMDcgMjAuNjU5NyAxNi45OTggMjAuNjM4N0MxNi45NjA3IDIwLjUzNTUgMTYuOTE1OSAyMC40MzUzIDE2Ljg2NCAyMC4zMzg3QzE2Ljc0MDIgMjAuMTI5MiAxNi41NDU0IDE5Ljk3MDkgMTYuMzE1IDE5Ljg5MjdIMTYuMzA1QzE2LjEwODMgMTkuODI5OCAxNS44OTY5IDE5LjgyOTUgMTUuNjk5OSAxOS44OTE2QzE1LjUwMyAxOS45NTM3IDE1LjMzMDEgMjAuMDc1MyAxNS4yMDUgMjAuMjM5N0MxNS4xODA2IDIwLjI3MTYgMTUuMTU4MyAyMC4zMDUgMTUuMTM4IDIwLjMzOTdDMTUuMDkyOCAyMC40MjE0IDE1LjA1MjcgMjAuNTA1OSAxNS4wMTggMjAuNTkyN0MxNC45ODU3IDIwLjY3MjUgMTQuOTQ5NCAyMC43NTA2IDE0LjkwOSAyMC44MjY3QzE0Ljc0MjkgMjEuMTIzOCAxNC41MzYyIDIxLjM5NjQgMTQuMjk1IDIxLjYzNjdDMTMuODU3IDIyLjA1MTcgMTMuMzM4NyAyMi4zNzI5IDEyLjc3MjEgMjIuNTgwNEMxMi4yMDU1IDIyLjc4OCAxMS42MDI1IDIyLjg3NzYgMTEgMjIuODQzN0MxMC43MzQ4IDIyLjg0MzcgMTAuNDgwNCAyMi45NDkgMTAuMjkyOSAyMy4xMzY2QzEwLjEwNTQgMjMuMzI0MSAxMCAyMy41Nzg1IDEwIDIzLjg0MzdDMTAgMjQuMTA4OSAxMC4xMDU0IDI0LjM2MzIgMTAuMjkyOSAyNC41NTA4QzEwLjQ4MDQgMjQuNzM4MyAxMC43MzQ4IDI0Ljg0MzcgMTEgMjQuODQzN0MxMS44NjUgMjQuODc3OSAxMi43Mjc5IDI0LjczNjcgMTMuNTM2OSAyNC40Mjg2QzE0LjM0NTggMjQuMTIwNCAxNS4wODQgMjMuNjUxNyAxNS43MDcgMjMuMDUwN0MxNS43OTQgMjIuOTYzNyAxNS44NzYgMjIuODc2NyAxNS45NTIgMjIuNzg5N0MxNi4wMDEgMjIuODU0NyAxNi4wNTIgMjIuOTE4NyAxNi4xMDcgMjIuOTgzN0MxNi41NzU2IDIzLjU2NTEgMTcuMTY4NiAyNC4wMzQyIDE3Ljg0MjIgMjQuMzU2NUMxOC41MTU5IDI0LjY3ODggMTkuMjUzMiAyNC44NDYxIDIwIDI0Ljg0NjFDMjAuNzQ2OCAyNC44NDYxIDIxLjQ4NDEgMjQuNjc4OCAyMi4xNTc4IDI0LjM1NjVDMjIuODMxNCAyNC4wMzQyIDIzLjQyNDQgMjMuNTY1MSAyMy44OTMgMjIuOTgzN0MyMy45NDcgMjIuOTE4NyAyMy45OTkgMjIuODU0NyAyNC4wNDggMjIuNzg5N0MyNC4xMjQgMjIuODc2NyAyNC4yMDYgMjIuOTYzNyAyNC4yOTMgMjMuMDUwN0MyNC45MTYgMjMuNjUxNyAyNS42NTQyIDI0LjEyMDQgMjYuNDYzMSAyNC40Mjg2QzI3LjI3MjEgMjQuNzM2NyAyOC4xMzUgMjQuODc3OSAyOSAyNC44NDM3QzI5LjI2NTIgMjQuODQzNyAyOS41MTk2IDI0LjczODMgMjkuNzA3MSAyNC41NTA4QzI5Ljg5NDYgMjQuMzYzMiAzMCAyNC4xMDg5IDMwIDIzLjg0MzdDMzAgMjMuNTc4NSAyOS44OTQ2IDIzLjMyNDEgMjkuNzA3MSAyMy4xMzY2QzI5LjUxOTYgMjIuOTQ5IDI5LjI2NTIgMjIuODQzNyAyOSAyMi44NDM3WiIvPiYjeGE7PHBhdGggZmlsbD0iYmxhY2siIGQ9Ik0yOSAyOC44NDM3QzI4LjM5NzkgMjguODc3MyAyNy43OTUyIDI4Ljc4NzYgMjcuMjI4OSAyOC41OEMyNi42NjI3IDI4LjM3MjUgMjYuMTQ0OCAyOC4wNTE1IDI1LjcwNyAyNy42MzY3QzI1LjQ2NTggMjcuMzk2NCAyNS4yNTkxIDI3LjEyMzggMjUuMDkzIDI2LjgyNjdDMjUuMDUyNiAyNi43NTA2IDI1LjAxNjMgMjYuNjcyNSAyNC45ODQgMjYuNTkyN0MyNC45NDkzIDI2LjUwNTkgMjQuOTA5MiAyNi40MjE0IDI0Ljg2NCAyNi4zMzk3QzI0Ljg0MzcgMjYuMzA1IDI0LjgyMTQgMjYuMjcxNiAyNC43OTcgMjYuMjM5N0MyNC42NzE5IDI2LjA3NTMgMjQuNDk5IDI1Ljk1MzcgMjQuMzAyMSAyNS44OTE2QzI0LjEwNTEgMjUuODI5NSAyMy44OTM3IDI1LjgyOTggMjMuNjk3IDI1Ljg5MjdIMjMuNjg3QzIzLjQ1NjYgMjUuOTcwOSAyMy4yNjE4IDI2LjEyOTIgMjMuMTM4IDI2LjMzODdDMjMuMDg2MSAyNi40MzUzIDIzLjA0MTMgMjYuNTM1NSAyMy4wMDQgMjYuNjM4N0wyMi45OTM1IDI2LjY2NDhDMjIuOTY2MSAyNi43MzMyIDIyLjkzODYgMjYuODAxOSAyMi45MDQgMjYuODY2N0MyMi43NTQxIDI3LjE2NiAyMi41NzA5IDI3LjQ0NzQgMjIuMzU4IDI3LjcwNTdDMjIuMDc2NSAyOC4wNjExIDIxLjcxODIgMjguMzQ4MiAyMS4zMTAxIDI4LjU0NTVDMjAuOTAxOSAyOC43NDI5IDIwLjQ1NDQgMjguODQ1NCAyMC4wMDEgMjguODQ1NEMxOS41NDc2IDI4Ljg0NTQgMTkuMTAwMSAyOC43NDI5IDE4LjY5MTkgMjguNTQ1NUMxOC4yODM4IDI4LjM0ODIgMTcuOTI1NSAyOC4wNjExIDE3LjY0NCAyNy43MDU3QzE3LjQzMTEgMjcuNDQ3NCAxNy4yNDc5IDI3LjE2NiAxNy4wOTggMjYuODY2N0MxNy4wNzExIDI2LjgxMzYgMTcuMDQ3OSAyNi43NTc5IDE3LjAyNDYgMjYuNzAxOUMxNy4wMTU4IDI2LjY4MDggMTcuMDA3IDI2LjY1OTcgMTYuOTk4IDI2LjYzODdDMTYuOTYwNyAyNi41MzU1IDE2LjkxNTkgMjYuNDM1MyAxNi44NjQgMjYuMzM4N0MxNi43NDAyIDI2LjEyOTIgMTYuNTQ1NCAyNS45NzA5IDE2LjMxNSAyNS44OTI3SDE2LjMwNUMxNi4xMDgzIDI1LjgyOTggMTUuODk2OSAyNS44Mjk1IDE1LjY5OTkgMjUuODkxNkMxNS41MDMgMjUuOTUzNyAxNS4zMzAxIDI2LjA3NTMgMTUuMjA1IDI2LjIzOTdDMTUuMTgwNiAyNi4yNzE2IDE1LjE1ODMgMjYuMzA1IDE1LjEzOCAyNi4zMzk3QzE1LjA5MjggMjYuNDIxNCAxNS4wNTI3IDI2LjUwNTkgMTUuMDE4IDI2LjU5MjdDMTQuOTg1NyAyNi42NzI1IDE0Ljk0OTQgMjYuNzUwNiAxNC45MDkgMjYuODI2N0MxNC43NDI5IDI3LjEyMzggMTQuNTM2MiAyNy4zOTY0IDE0LjI5NSAyNy42MzY3QzEzLjg1NyAyOC4wNTE3IDEzLjMzODcgMjguMzcyOSAxMi43NzIxIDI4LjU4MDRDMTIuMjA1NSAyOC43ODggMTEuNjAyNSAyOC44Nzc2IDExIDI4Ljg0MzdDMTAuNzM0OCAyOC44NDM3IDEwLjQ4MDQgMjguOTQ5IDEwLjI5MjkgMjkuMTM2NkMxMC4xMDU0IDI5LjMyNDEgMTAgMjkuNTc4NSAxMCAyOS44NDM3QzEwIDMwLjEwODkgMTAuMTA1NCAzMC4zNjMyIDEwLjI5MjkgMzAuNTUwOEMxMC40ODA0IDMwLjczODMgMTAuNzM0OCAzMC44NDM3IDExIDMwLjg0MzdDMTEuODY1IDMwLjg3NzkgMTIuNzI3OSAzMC43MzY3IDEzLjUzNjkgMzAuNDI4NkMxNC4zNDU4IDMwLjEyMDQgMTUuMDg0IDI5LjY1MTcgMTUuNzA3IDI5LjA1MDdDMTUuNzk0IDI4Ljk2MzcgMTUuODc2IDI4Ljg3NjcgMTUuOTUyIDI4Ljc4OTdDMTYuMDAxIDI4Ljg1NDcgMTYuMDUyIDI4LjkxODcgMTYuMTA3IDI4Ljk4MzdDMTYuNTc1NiAyOS41NjUxIDE3LjE2ODYgMzAuMDM0MiAxNy44NDIyIDMwLjM1NjVDMTguNTE1OSAzMC42Nzg4IDE5LjI1MzIgMzAuODQ2MSAyMCAzMC44NDYxQzIwLjc0NjggMzAuODQ2MSAyMS40ODQxIDMwLjY3ODggMjIuMTU3OCAzMC4zNTY1QzIyLjgzMTQgMzAuMDM0MiAyMy40MjQ0IDI5LjU2NTEgMjMuODkzIDI4Ljk4MzdDMjMuOTQ3IDI4LjkxODcgMjMuOTk5IDI4Ljg1NDcgMjQuMDQ4IDI4Ljc4OTdDMjQuMTI0IDI4Ljg3NjcgMjQuMjA2IDI4Ljk2MzcgMjQuMjkzIDI5LjA1MDdDMjQuOTE2IDI5LjY1MTcgMjUuNjU0MiAzMC4xMjA0IDI2LjQ2MzEgMzAuNDI4NkMyNy4yNzIxIDMwLjczNjcgMjguMTM1IDMwLjg3NzkgMjkgMzAuODQzN0MyOS4yNjUyIDMwLjg0MzcgMjkuNTE5NiAzMC43MzgzIDI5LjcwNzEgMzAuNTUwOEMyOS44OTQ2IDMwLjM2MzIgMzAgMzAuMTA4OSAzMCAyOS44NDM3QzMwIDI5LjU3ODUgMjkuODk0NiAyOS4zMjQxIDI5LjcwNzEgMjkuMTM2NkMyOS41MTk2IDI4Ljk0OSAyOS4yNjUyIDI4Ljg0MzcgMjkgMjguODQzN1oiLz4mI3hhOzwvc3ZnPg==;imageBackground=default;fontFamily=Segoe UI;" parent="1" vertex="1">
                    <mxGeometry x="320" y="570" width="32" height="33" as="geometry"/>
                </mxCell>
                <mxCell id="SYjlbVsFbEoAXCGQWf2b-23" value="Malformed" style="rounded=0;whiteSpace=wrap;html=1;fontStyle=1;fontSize=13;fontFamily=Segoe UI;" parent="1" vertex="1">
                    <mxGeometry x="315" y="506" width="110" height="60" as="geometry"/>
                </mxCell>
                <mxCell id="SYjlbVsFbEoAXCGQWf2b-30" value="shortcut" style="shape=image;verticalLabelPosition=bottom;verticalAlign=top;imageAspect=0;aspect=fixed;image=data:image/svg+xml,PHN2ZyB4bWxucz0iaHR0cDovL3d3dy53My5vcmcvMjAwMC9zdmciIGZpbGw9Im5vbmUiIHZpZXdCb3g9IjAgMCAzMiAzMyIgaGVpZ2h0PSIzMyIgd2lkdGg9IjMyIj4mI3hhOzxwYXRoIGZpbGw9ImJsYWNrIiBkPSJNNy41IDMuNzY1NjJDNS4wMTQ3MiAzLjc2NTYyIDMgNS43ODAzNCAzIDguMjY1NjJWMjUuMjY1NkMzIDI3Ljc1MDkgNS4wMTQ3MiAyOS43NjU2IDcuNSAyOS43NjU2SDE3LjM4NzlDMTYuNDIwNyAyOS4zMzA2IDE1LjU5NTcgMjguNjM0IDE1LjAwMTkgMjcuNzY1Nkg3LjVDNi4xMTkyOSAyNy43NjU2IDUgMjYuNjQ2MyA1IDI1LjI2NTZWOC4yNjU2MkM1IDYuODg0OTEgNi4xMTkyOSA1Ljc2NTYyIDcuNSA1Ljc2NTYySDI0LjVDMjUuODgwNyA1Ljc2NTYyIDI3IDYuODg0OTEgMjcgOC4yNjU2MlYxOC44MTE1QzI3LjcxNjQgMTguOTAyNyAyOC4zOTE0IDE5LjEyNjcgMjkgMTkuNDU4MlY4LjI2NTYyQzI5IDUuNzgwMzQgMjYuOTg1MyAzLjc2NTYyIDI0LjUgMy43NjU2Mkg3LjVaIi8+JiN4YTs8cGF0aCBmaWxsPSJibGFjayIgZD0iTTE1LjQ3IDIwLjY2OTNDMTYuMDI4MSAyMC4wNDcxIDE2LjcxOTYgMTkuNTQ3OCAxNy40OTkyIDE5LjIxN0MxNy40NzM1IDE4LjQxMTEgMTYuODEyMSAxNy43NjU2IDE2IDE3Ljc2NTZDMTUuMTcxNiAxNy43NjU2IDE0LjUgMTguNDM3MiAxNC41IDE5LjI2NTZDMTQuNSAxOS45MDc1IDE0LjkwMzEgMjAuNDU1MSAxNS40NyAyMC42NjkzWiIvPiYjeGE7PHBhdGggZmlsbD0iYmxhY2siIGQ9Ik0xMC41IDE0Ljc2NTZDMTEuMzI4NCAxNC43NjU2IDEyIDE0LjA5NDEgMTIgMTMuMjY1NkMxMiAxMi40MzcyIDExLjMyODQgMTEuNzY1NiAxMC41IDExLjc2NTZDOS42NzE1NyAxMS43NjU2IDkgMTIuNDM3MiA5IDEzLjI2NTZDOSAxNC4wOTQxIDkuNjcxNTcgMTQuNzY1NiAxMC41IDE0Ljc2NTZaIi8+JiN4YTs8cGF0aCBmaWxsPSJibGFjayIgZD0iTTEwLjUgMjAuNzY1NkMxMS4zMjg0IDIwLjc2NTYgMTIgMjAuMDk0MSAxMiAxOS4yNjU2QzEyIDE4LjQzNzIgMTEuMzI4NCAxNy43NjU2IDEwLjUgMTcuNzY1NkM5LjY3MTU3IDE3Ljc2NTYgOSAxOC40MzcyIDkgMTkuMjY1NkM5IDIwLjA5NDEgOS42NzE1NyAyMC43NjU2IDEwLjUgMjAuNzY1NloiLz4mI3hhOzxwYXRoIGZpbGw9ImJsYWNrIiBkPSJNMTcuNSAxMy4yNjU2QzE3LjUgMTQuMDk0MSAxNi44Mjg0IDE0Ljc2NTYgMTYgMTQuNzY1NkMxNS4xNzE2IDE0Ljc2NTYgMTQuNSAxNC4wOTQxIDE0LjUgMTMuMjY1NkMxNC41IDEyLjQzNzIgMTUuMTcxNiAxMS43NjU2IDE2IDExLjc2NTZDMTYuODI4NCAxMS43NjU2IDE3LjUgMTIuNDM3MiAxNy41IDEzLjI2NTZaIi8+JiN4YTs8cGF0aCBmaWxsPSJibGFjayIgZD0iTTIzIDEzLjI2NTZDMjMgMTQuMDk0MSAyMi4zMjg0IDE0Ljc2NTYgMjEuNSAxNC43NjU2QzIwLjY3MTYgMTQuNzY1NiAyMCAxNC4wOTQxIDIwIDEzLjI2NTZDMjAgMTIuNDM3MiAyMC42NzE2IDExLjc2NTYgMjEuNSAxMS43NjU2QzIyLjMyODQgMTEuNzY1NiAyMyAxMi40MzcyIDIzIDEzLjI2NTZaIi8+JiN4YTs8cGF0aCBmaWxsPSJibGFjayIgZD0iTTE1LjUgMjQuNTE1NkMxNS41IDIyLjE2ODQgMTcuNDAyOCAyMC4yNjU2IDE5Ljc1IDIwLjI2NTZIMjAuNzVDMjEuMTY0MiAyMC4yNjU2IDIxLjUgMjAuNjAxNCAyMS41IDIxLjAxNTZDMjEuNSAyMS40Mjk4IDIxLjE2NDIgMjEuNzY1NiAyMC43NSAyMS43NjU2SDE5Ljc1QzE4LjIzMTIgMjEuNzY1NiAxNyAyMi45OTY4IDE3IDI0LjUxNTZDMTcgMjYuMDM0NCAxOC4yMzEyIDI3LjI2NTYgMTkuNzUgMjcuMjY1NkgyMC43NUMyMS4xNjQyIDI3LjI2NTYgMjEuNSAyNy42MDE0IDIxLjUgMjguMDE1NkMyMS41IDI4LjQyOTggMjEuMTY0MiAyOC43NjU2IDIwLjc1IDI4Ljc2NTZIMTkuNzVDMTcuNDAyOCAyOC43NjU2IDE1LjUgMjYuODYyOCAxNS41IDI0LjUxNTZaIi8+JiN4YTs8cGF0aCBmaWxsPSJibGFjayIgZD0iTTMwLjUgMjQuNTE1NkMzMC41IDIyLjE2ODQgMjguNTk3MiAyMC4yNjU2IDI2LjI1IDIwLjI2NTZIMjQuNzVDMjQuMzM1OCAyMC4yNjU2IDI0IDIwLjYwMTQgMjQgMjEuMDE1NkMyNCAyMS40Mjk4IDI0LjMzNTggMjEuNzY1NiAyNC43NSAyMS43NjU2SDI2LjI1QzI3Ljc2ODggMjEuNzY1NiAyOSAyMi45OTY4IDI5IDI0LjUxNTZDMjkgMjYuMDM0NCAyNy43Njg4IDI3LjI2NTYgMjYuMjUgMjcuMjY1NkgyNC43NUMyNC4zMzU4IDI3LjI2NTYgMjQgMjcuNjAxNCAyNCAyOC4wMTU2QzI0IDI4LjQyOTggMjQuMzM1OCAyOC43NjU2IDI0Ljc1IDI4Ljc2NTZIMjYuMjVDMjguNTk3MiAyOC43NjU2IDMwLjUgMjYuODYyOCAzMC41IDI0LjUxNTZaIi8+JiN4YTs8cGF0aCBmaWxsPSJibGFjayIgZD0iTTE5LjUgMjQuNTE1NkMxOS41IDI0LjEwMTQgMTkuODM1OCAyMy43NjU2IDIwLjI1IDIzLjc2NTZIMjUuNzVDMjYuMTY0MiAyMy43NjU2IDI2LjUgMjQuMTAxNCAyNi41IDI0LjUxNTZDMjYuNSAyNC45Mjk4IDI2LjE2NDIgMjUuMjY1NiAyNS43NSAyNS4yNjU2SDIwLjI1QzE5LjgzNTggMjUuMjY1NiAxOS41IDI0LjkyOTggMTkuNSAyNC41MTU2WiIvPiYjeGE7PC9zdmc+;imageBackground=default;fontFamily=Segoe UI;" parent="1" vertex="1">
                    <mxGeometry x="70" y="517.33" width="32" height="33" as="geometry"/>
                </mxCell>
                <mxCell id="SYjlbVsFbEoAXCGQWf2b-4" value="Warehouse" style="shape=image;verticalLabelPosition=bottom;verticalAlign=top;imageAspect=0;aspect=fixed;image=data:image/svg+xml,PHN2ZyB4bWxucz0iaHR0cDovL3d3dy53My5vcmcvMjAwMC9zdmciIGZpbGw9Im5vbmUiIHZpZXdCb3g9IjAgMCAzMiAzMyIgaGVpZ2h0PSIzMyIgd2lkdGg9IjMyIj4mI3hhOzxwYXRoIGZpbGw9ImJsYWNrIiBkPSJNMTUuMTkwNCA1LjI4NTg1QzE1LjY1NzIgNC44ODkwOSAxNi4zNDI4IDQuODg5MDkgMTYuODA5NiA1LjI4NTg2TDI2LjU1OTYgMTMuNTczM0MyNi44MzkgMTMuODEwOCAyNyAxNC4xNTkgMjcgMTQuNTI1N1YyNi43NDAyQzI3IDI3LjQyNzggMjYuNDQyNiAyNy45ODUyIDI1Ljc1NSAyNy45ODUySDYuMjQ1QzUuNTU3NCAyNy45ODUyIDUgMjcuNDI3OCA1IDI2Ljc0MDJWMTQuNTI1N0M1IDE0LjE1OSA1LjE2MTAzIDEzLjgxMDggNS40NDA0NCAxMy41NzMzTDE1LjE5MDQgNS4yODU4NVpNMTguMTA0OSAzLjc2MTk3QzE2Ljg5MTIgMi43MzAzOSAxNS4xMDg4IDIuNzMwMzggMTMuODk1MiAzLjc2MTk3TDQuMTQ1MTUgMTIuMDQ5NEMzLjQxODY4IDEyLjY2NjkgMyAxMy41NzIzIDMgMTQuNTI1N1YyNi43NDAyQzMgMjguNTMyNCA0LjQ1MjgzIDI5Ljk4NTIgNi4yNDUgMjkuOTg1MkgyNS43NTVDMjcuNTQ3MiAyOS45ODUyIDI5IDI4LjUzMjQgMjkgMjYuNzQwMlYxNC41MjU3QzI5IDEzLjU3MjMgMjguNTgxMyAxMi42NjY5IDI3Ljg1NDkgMTIuMDQ5NEwxOC4xMDQ5IDMuNzYxOTdaTTEyIDE3LjQ4NTJDMTIgMTguMzEzNyAxMS4zMjg0IDE4Ljk4NTIgMTAuNSAxOC45ODUyQzkuNjcxNTcgMTguOTg1MiA5IDE4LjMxMzcgOSAxNy40ODUyQzkgMTYuNjU2OCA5LjY3MTU3IDE1Ljk4NTIgMTAuNSAxNS45ODUyQzExLjMyODQgMTUuOTg1MiAxMiAxNi42NTY4IDEyIDE3LjQ4NTJaTTEwLjUgMjMuOTg1MkMxMS4zMjg0IDIzLjk4NTIgMTIgMjMuMzEzNyAxMiAyMi40ODUyQzEyIDIxLjY1NjggMTEuMzI4NCAyMC45ODUyIDEwLjUgMjAuOTg1MkM5LjY3MTU3IDIwLjk4NTIgOSAyMS42NTY4IDkgMjIuNDg1MkM5IDIzLjMxMzcgOS42NzE1NyAyMy45ODUyIDEwLjUgMjMuOTg1MlpNMTYgMjMuOTg1MkMxNi44Mjg0IDIzLjk4NTIgMTcuNSAyMy4zMTM3IDE3LjUgMjIuNDg1MkMxNy41IDIxLjY1NjggMTYuODI4NCAyMC45ODUyIDE2IDIwLjk4NTJDMTUuMTcxNiAyMC45ODUyIDE0LjUgMjEuNjU2OCAxNC41IDIyLjQ4NTJDMTQuNSAyMy4zMTM3IDE1LjE3MTYgMjMuOTg1MiAxNiAyMy45ODUyWk0xNiAxOC45ODUyQzE2LjgyODQgMTguOTg1MiAxNy41IDE4LjMxMzcgMTcuNSAxNy40ODUyQzE3LjUgMTYuNjU2OCAxNi44Mjg0IDE1Ljk4NTIgMTYgMTUuOTg1MkMxNS4xNzE2IDE1Ljk4NTIgMTQuNSAxNi42NTY4IDE0LjUgMTcuNDg1MkMxNC41IDE4LjMxMzcgMTUuMTcxNiAxOC45ODUyIDE2IDE4Ljk4NTJaTTIxLjUgMTguOTg1MkMyMi4zMjg0IDE4Ljk4NTIgMjMgMTguMzEzNyAyMyAxNy40ODUyQzIzIDE2LjY1NjggMjIuMzI4NCAxNS45ODUyIDIxLjUgMTUuOTg1MkMyMC42NzE2IDE1Ljk4NTIgMjAgMTYuNjU2OCAyMCAxNy40ODUyQzIwIDE4LjMxMzcgMjAuNjcxNiAxOC45ODUyIDIxLjUgMTguOTg1MlpNMjEuNSAyMy45ODUyQzIyLjMyODQgMjMuOTg1MiAyMyAyMy4zMTM3IDIzIDIyLjQ4NTJDMjMgMjEuNjU2OCAyMi4zMjg0IDIwLjk4NTIgMjEuNSAyMC45ODUyQzIwLjY3MTYgMjAuOTg1MiAyMCAyMS42NTY4IDIwIDIyLjQ4NTJDMjAgMjMuMzEzNyAyMC42NzE2IDIzLjk4NTIgMjEuNSAyMy45ODUyWiIvPiYjeGE7PC9zdmc+;imageBackground=default;fontFamily=Segoe UI;" parent="1" vertex="1">
                    <mxGeometry x="620" y="550" width="32" height="33" as="geometry"/>
                </mxCell>
                <mxCell id="17" value="" style="group;fontFamily=Segoe UI;" parent="1" vertex="1" connectable="0">
                    <mxGeometry x="370" y="632.22" width="117" height="38.789999999999964" as="geometry"/>
                </mxCell>
                <mxCell id="SYjlbVsFbEoAXCGQWf2b-6" value="" style="shape=image;verticalLabelPosition=bottom;verticalAlign=top;imageAspect=0;aspect=fixed;image=data:image/svg+xml,PHN2ZyB4bWxucz0iaHR0cDovL3d3dy53My5vcmcvMjAwMC9zdmciIHZpZXdCb3g9IjAgMCA0OCA0OSIgZmlsbD0iY3VycmVudENvbG9yIiBoZWlnaHQ9IjQ5IiB3aWR0aD0iNDgiPiYjeGE7ICA8bWFzayBzdHlsZT0ibWFzay10eXBlOmx1bWluYW5jZSIgbWFza1VuaXRzPSJ1c2VyU3BhY2VPblVzZSIgeT0iNCIgeD0iNCIgaGVpZ2h0PSI0MSIgd2lkdGg9IjQwIiBpZD0iYSI+JiN4YTsgICAgPHBhdGggZD0iTTQzLjQ4MSA0LjVINC41MnYzOS45ODVoMzguOTZWNC41WiIgZmlsbD0iI2ZmZiIvPiYjeGE7ICA8L21hc2s+JiN4YTsgIDxnIG1hc2s9InVybCgjYSkiPiYjeGE7ICAgIDxwYXRoIGQ9Ik0yMi4yMSAzMy4wNDFjNS40ODYtMy4xNjggNy4yOTMtMTAuMzEyIDQuMDMzLTE1Ljk1Ny0zLjI2LTUuNjQ2LTEwLjM1LTcuNjU0LTE1LjgzNi00LjQ4NkM0LjkyIDE1Ljc2NiAzLjExNCAyMi45MSA2LjM3MyAyOC41NTZjMy4yNiA1LjY0NSAxMC4zNSA3LjY1MyAxNS44MzYgNC40ODVaIiBmaWxsPSJ1cmwoI2IpIi8+JiN4YTsgICAgPHBhdGggZD0iTTI5LjM3MSAxNy4yMTVjMi44NDktMi44NSAyLjc4LTcuNTM2LS4xNTItMTAuNDY4QzI2LjI4NyAzLjgxNiAyMS42IDMuNzUgMTguNzUxIDYuNnMtMi43OCA3LjUzNy4xNTIgMTAuNDY4YzIuOTMzIDIuOTMyIDcuNjIgMi45OTggMTAuNDY4LjE0OFoiIGZpbGw9InVybCgjYykiLz4mI3hhOyAgICA8cGF0aCBkPSJNMjYuMjk5IDQzLjcyYzkuNDg3IDAgMTcuMTc4LTcuNjkxIDE3LjE3OC0xNy4xNzlTMzUuNzg3IDkuMzYyIDI2LjMgOS4zNjIgOS4xMiAxNy4wNTMgOS4xMiAyNi41NDEgMTYuODExIDQzLjcyIDI2LjMgNDMuNzJaIiBmaWxsPSJ1cmwoI2QpIi8+JiN4YTsgICAgPHBhdGggY2xpcC1ydWxlPSJldmVub2RkIiBkPSJNMTkuNTY5IDUuODg3Yy0xMC4wODUgNi4yMy0xMy42MSAxOS4zNS03LjgxNSAyOS44NDUuMzkuNzEuODE1IDEuMzkyIDEuMjc0IDIuMDM5bC40NS4wNjkgOS45NjYgMy4zMjcgOS40NjgtNi4zNDNjLTEuNTg1LjA1LTguMTgtMy42OTMtMTIuNDktMTEuODcyLTUuNC0xMC4yNDgtMy4xNzMtMTQuOTgyLS44NDMtMTcuMDY1aC0uMDFaIiBmaWxsLXJ1bGU9ImV2ZW5vZGQiIGZpbGw9InVybCgjZSkiLz4mI3hhOyAgICA8cGF0aCBjbGlwLXJ1bGU9ImV2ZW5vZGQiIGQ9Ik0xOS41NjkgNS44ODdjLTEwLjA4NSA2LjIzLTEzLjYxIDE5LjM1LTcuODE1IDI5Ljg0NS4zOS43MS44MTUgMS4zOTIgMS4yNzQgMi4wMzlsLjQ1LjA2OSA5Ljk2NiAzLjMyNyA5LjQ2OC02LjM0M2MtMS41ODUuMDUtOC4xOC0zLjY5My0xMi40OS0xMS44NzItNS40LTEwLjI0OC0zLjE3My0xNC45ODItLjg0My0xNy4wNjVoLS4wMVoiIGZpbGwtcnVsZT0iZXZlbm9kZCIgZmlsbC1vcGFjaXR5PSIuMiIgZmlsbD0idXJsKCNmKSIvPiYjeGE7ICAgIDxwYXRoIGNsaXAtcnVsZT0iZXZlbm9kZCIgZD0iTTM5LjM2NCAzNy42OTdhMTcuMjQgMTcuMjQgMCAwIDAgMy42MzgtNy4xMDljLTEuNzA4LTQuODc3LTguNTgtNi4yNDktMTIuMzQtMi40MzMtMi44ODkgMi45MjctNS44OSA1LjM4Ni04LjE0NiA1LjgyNUM5LjQ2OSAzNi41NDIgMy45MTkgMjUuNzg3IDQuODczIDIwLjg0YTE5LjgxIDE5LjgxIDAgMCAwIC4wNSA3LjczYzIuMTk2IDEwLjc2IDEyLjY5NiAxNy43IDIzLjQ1NyAxNS41MDVhMTkuODE0IDE5LjgxNCAwIDAgMCA4LjcyNy00LjE4MXMuMDQtLjAzLjA1NC0uMDQ1YTE5Ljc2IDE5Ljc2IDAgMCAwIDIuMjAyLTIuMTU3di4wMDVaIiBmaWxsLXJ1bGU9ImV2ZW5vZGQiIGZpbGw9InVybCgjZykiLz4mI3hhOyAgPC9nPiYjeGE7ICA8ZGVmcz4mI3hhOyAgICA8cmFkaWFsR3JhZGllbnQgZ3JhZGllbnRVbml0cz0idXNlclNwYWNlT25Vc2UiIGdyYWRpZW50VHJhbnNmb3JtPSJyb3RhdGUoMTM0LjgzIDE4LjExMyA4LjI5NCkgc2NhbGUoMjUuODkyNSAzMy40MDMzKSIgcj0iMSIgY3k9IjAiIGN4PSIwIiBpZD0iZCI+JiN4YTsgICAgICA8c3RvcCBzdG9wLWNvbG9yPSIjMDI4RkRDIiBvZmZzZXQ9Ii4zOSIvPiYjeGE7ICAgICAgPHN0b3Agc3RvcC1jb2xvcj0iIzAwNzhENCIgb2Zmc2V0PSIuNTkiLz4mI3hhOyAgICAgIDxzdG9wIHN0b3AtY29sb3I9IiMxQTUwOEIiIG9mZnNldD0iMSIvPiYjeGE7ICAgIDwvcmFkaWFsR3JhZGllbnQ+JiN4YTsgICAgPHJhZGlhbEdyYWRpZW50IGdyYWRpZW50VW5pdHM9InVzZXJTcGFjZU9uVXNlIiBncmFkaWVudFRyYW5zZm9ybT0icm90YXRlKDEzOS40NCAxMi41NCAxNC4xNDUpIHNjYWxlKDIzLjMwMDYgMjguNzQ5NSkiIHI9IjEiIGN5PSIwIiBjeD0iMCIgaWQ9ImUiPiYjeGE7ICAgICAgPHN0b3Agc3RvcC1jb2xvcj0iIzQwRDlGQSIgb2Zmc2V0PSIuNDYiLz4mI3hhOyAgICAgIDxzdG9wIHN0b3AtY29sb3I9IiMwMDk1RTYiIG9mZnNldD0iLjkiLz4mI3hhOyAgICA8L3JhZGlhbEdyYWRpZW50PiYjeGE7ICAgIDxyYWRpYWxHcmFkaWVudCBncmFkaWVudFVuaXRzPSJ1c2VyU3BhY2VPblVzZSIgZ3JhZGllbnRUcmFuc2Zvcm09Im1hdHJpeCgtMi42NTMwOCAyNC41ODE4NCAtMTcuNDU4MzEgLTEuODg0MjUgMTguNDA4IDExLjc2NCkiIHI9IjEiIGN5PSIwIiBjeD0iMCIgaWQ9ImYiPiYjeGE7ICAgICAgPHN0b3Agc3RvcC1vcGFjaXR5PSIwIiBvZmZzZXQ9Ii43NyIvPiYjeGE7ICAgICAgPHN0b3Agb2Zmc2V0PSIxIi8+JiN4YTsgICAgPC9yYWRpYWxHcmFkaWVudD4mI3hhOyAgICA8cmFkaWFsR3JhZGllbnQgZ3JhZGllbnRVbml0cz0idXNlclNwYWNlT25Vc2UiIGdyYWRpZW50VHJhbnNmb3JtPSJyb3RhdGUoODUuOTcgLTEuMDExIDMxLjIwOSkgc2NhbGUoMzguNDc0OSA3MC4xNTc4KSIgcj0iMSIgY3k9IjAiIGN4PSIwIiBpZD0iZyI+JiN4YTsgICAgICA8c3RvcCBzdG9wLWNvbG9yPSIjQkRGNUZGIiBvZmZzZXQ9Ii4xIi8+JiN4YTsgICAgICA8c3RvcCBzdG9wLWNvbG9yPSIjNDBEOUZBIiBvZmZzZXQ9Ii40NyIvPiYjeGE7ICAgIDwvcmFkaWFsR3JhZGllbnQ+JiN4YTsgICAgPGxpbmVhckdyYWRpZW50IGdyYWRpZW50VW5pdHM9InVzZXJTcGFjZU9uVXNlIiB5Mj0iMjUuNTU3IiB5MT0iMTcuNDczIiB4Mj0iNC40NDgiIHgxPSIzOS41MSIgaWQ9ImIiPiYjeGE7ICAgICAgPHN0b3Agc3RvcC1jb2xvcj0iIzAyOEZEQyIgb2Zmc2V0PSIuMiIvPiYjeGE7ICAgICAgPHN0b3Agc3RvcC1jb2xvcj0iIzAwNzhENCIgb2Zmc2V0PSIuNTEiLz4mI3hhOyAgICAgIDxzdG9wIHN0b3AtY29sb3I9IiMwQjMxNUIiIG9mZnNldD0iMSIvPiYjeGE7ICAgIDwvbGluZWFyR3JhZGllbnQ+JiN4YTsgICAgPGxpbmVhckdyYWRpZW50IGdyYWRpZW50VW5pdHM9InVzZXJTcGFjZU9uVXNlIiB5Mj0iNy4xMTIiIHkxPSIyOC4zNDEiIHgyPSIxOC44MzEiIHgxPSI0MS45OTUiIGlkPSJjIj4mI3hhOyAgICAgIDxzdG9wIHN0b3AtY29sb3I9IiMwMjhGREMiIG9mZnNldD0iLjA0Ii8+JiN4YTsgICAgICA8c3RvcCBzdG9wLWNvbG9yPSIjMDA3OEQ0IiBvZmZzZXQ9Ii40NiIvPiYjeGE7ICAgICAgPHN0b3Agc3RvcC1jb2xvcj0iIzBCMzE1QiIgb2Zmc2V0PSIxIi8+JiN4YTsgICAgPC9saW5lYXJHcmFkaWVudD4mI3hhOyAgPC9kZWZzPiYjeGE7PC9zdmc+;fontFamily=Segoe UI;" parent="17" vertex="1">
                    <mxGeometry width="38" height="38.79" as="geometry"/>
                </mxCell>
                <mxCell id="16" value="&lt;font color=&quot;#0066cc&quot; style=&quot;font-size: 14px;&quot;&gt;OneLake&lt;/font&gt;" style="text;html=1;strokeColor=none;fillColor=none;align=center;verticalAlign=middle;whiteSpace=wrap;rounded=0;strokeWidth=3;fontSize=14;fontStyle=1;fontColor=#000099;fontFamily=Segoe UI;" parent="17" vertex="1">
                    <mxGeometry x="38" y="4.389999999999986" width="79" height="30" as="geometry"/>
                </mxCell>
                <mxCell id="19" value="" style="endArrow=none;dashed=1;html=1;dashPattern=1 3;strokeWidth=3;fontSize=14;fontColor=#000099;strokeColor=#000000;fontFamily=Segoe UI;" parent="1" edge="1">
                    <mxGeometry width="50" height="50" relative="1" as="geometry">
                        <mxPoint x="50" y="740" as="sourcePoint"/>
                        <mxPoint x="50" y="330" as="targetPoint"/>
                    </mxGeometry>
                </mxCell>
                <mxCell id="SYjlbVsFbEoAXCGQWf2b-3" value="Data Factory" style="shape=image;verticalLabelPosition=bottom;verticalAlign=top;imageAspect=0;aspect=fixed;image=data:image/svg+xml,PHN2ZyB4bWxucz0iaHR0cDovL3d3dy53My5vcmcvMjAwMC9zdmciIGZpbGw9Im5vbmUiIHZpZXdCb3g9IjAgMCA0OCA0OCIgaGVpZ2h0PSI0OCIgd2lkdGg9IjQ4Ij4mI3hhOzxwYXRoIGZpbGw9InVybCgjcGFpbnQwX2xpbmVhcl8zNTc0OV8xMTI3OTgpIiBkPSJNMTUuNTU3NCA0NEMxNC43MjkgNDQgMTQuMDkwMyA0My4yNiAxNC4yMSA0Mi40NDAxQzE1Ljk4NjUgMzAuNDEwMSAyNi4yOTYxIDIxLjUwMDEgMzguNDMyMSAyMS41MDAxSDQwLjg4NzJDNDIuNTYzOSAyMS41MDAxIDQzLjc5MTUgMjAuNTAwMSA0My43OTE1IDE4LjgyMDJMNDMuOTMxMiAxOC4xNjAyVjI5LjgzMDFDNDMuOTMxMiAzMS42NzAxIDQyLjQ0NDEgMzMuMTYwMSA0MC42MDc4IDMzLjE2MDFIMzkuMjMwNUMzNC4xMjA2IDMzLjE2MDEgMjkuNjA5NSAzNi41MDAxIDI4LjEwMjUgNDEuNDAwMUwyNy42NjM0IDQyLjgyQzI3LjQ0MzggNDMuNTIgMjYuODA1MSA0NCAyNi4wNzY1IDQ0SDE1LjU3NzNIMTUuNTU3NFoiLz4mI3hhOzxwYXRoIGZpbGw9InVybCgjcGFpbnQxX2xpbmVhcl8zNTc0OV8xMTI3OTgpIiBkPSJNMTUuNTU3NCA0NEMxNC43MjkgNDQgMTQuMDkwMyA0My4yNiAxNC4yMSA0Mi40NDAxQzE1Ljk4NjUgMzAuNDEwMSAyNi4yOTYxIDIxLjUwMDEgMzguNDMyMSAyMS41MDAxSDQwLjg4NzJDNDIuNTYzOSAyMS41MDAxIDQzLjc5MTUgMjAuNTAwMSA0My43OTE1IDE4LjgyMDJMNDMuOTMxMiAxOC4xNjAyVjI5LjgzMDFDNDMuOTMxMiAzMS42NzAxIDQyLjQ0NDEgMzMuMTYwMSA0MC42MDc4IDMzLjE2MDFIMzkuMjMwNUMzNC4xMjA2IDMzLjE2MDEgMjkuNjA5NSAzNi41MDAxIDI4LjEwMjUgNDEuNDAwMUwyNy42NjM0IDQyLjgyQzI3LjQ0MzggNDMuNTIgMjYuODA1MSA0NCAyNi4wNzY1IDQ0SDE1LjU3NzNIMTUuNTU3NFoiLz4mI3hhOzxwYXRoIGZpbGw9InVybCgjcGFpbnQyX2xpbmVhcl8zNTc0OV8xMTI3OTgpIiBkPSJNNS42NjY3IDMwLjY2OTlDNC43NDg1MiAzMC42Njk5IDQgMjkuOTE5OSA0IDI4Ljk5OTlWMTguOTk5OUM0IDE4LjA4IDQuNzQ4NTIgMTcuMzMgNS42NjY3IDE3LjMzSDM1LjYwNzRDMzYuNTI1NiAxNy4zMyAzNy4yNzQxIDE4LjA4IDM3LjI3NDEgMTguOTk5OVYyOC45OTk5QzM3LjI3NDEgMjkuOTE5OSAzNi41MjU2IDMwLjY2OTkgMzUuNjA3NCAzMC42Njk5SDUuNjY2N1oiLz4mI3hhOzxwYXRoIGZpbGw9InVybCgjcGFpbnQzX3JhZGlhbF8zNTc0OV8xMTI3OTgpIiBkPSJNNS42NjY3IDMwLjY2OTlDNC43NDg1MiAzMC42Njk5IDQgMjkuOTE5OSA0IDI4Ljk5OTlWMTguOTk5OUM0IDE4LjA4IDQuNzQ4NTIgMTcuMzMgNS42NjY3IDE3LjMzSDM1LjYwNzRDMzYuNTI1NiAxNy4zMyAzNy4yNzQxIDE4LjA4IDM3LjI3NDEgMTguOTk5OVYyOC45OTk5QzM3LjI3NDEgMjkuOTE5OSAzNi41MjU2IDMwLjY2OTkgMzUuNjA3NCAzMC42Njk5SDUuNjY2N1oiLz4mI3hhOzxwYXRoIGZpbGw9InVybCgjcGFpbnQ0X2xpbmVhcl8zNTc0OV8xMTI3OTgpIiBkPSJNMTUuNTc3MSA0QzE0LjczODggNCAxNC4wOTAxIDQuNzUgMTQuMjA5OCA1LjU3OTk5QzE1Ljk4NjMgMTcuODI5OSAyNi40NjU2IDI2LjkwOTkgMzguODIxMSAyNi45MDk5SDQwLjg4N0M0Mi41NjM3IDI2LjkwOTkgNDMuOTIxIDI4LjI2OTkgNDMuOTIxIDI5Ljk0OTlWMTguMTY5OUM0My45MjEgMTYuMzI5OSA0Mi40MzQgMTQuODQgNDAuNTk3NiAxNC44NEgzOS4yMjAzQzM0LjExMDQgMTQuODQgMjkuNTk5NCAxMS41IDI4LjA5MjQgNi41OTk5OUwyNy42NTMyIDUuMTc5OTlDMjcuNDMzNyA0LjQ4IDI2Ljc5NDkgNCAyNi4wNjY0IDRIMTUuNTg3MUgxNS41NzcxWiIvPiYjeGE7PHBhdGggZmlsbD0idXJsKCNwYWludDVfbGluZWFyXzM1NzQ5XzExMjc5OCkiIGQ9Ik00MC41OTY5IDE0LjgzSDM5LjIxOTZDMzYuODU0MyAxNC44MyAzNC42MTg3IDE0LjExIDMyLjc1MjQgMTIuODVWMjYuMTVDMzQuNjk4NiAyNi42NCAzNi43MzQ2IDI2LjkxIDM4LjgzMDQgMjYuOTFINDAuODk2M0M0Mi41NzMgMjYuOTEgNDMuOTMwMyAyOC4yNyA0My45MzAzIDI5Ljk1VjE4LjE3QzQzLjkzMDMgMTYuMzMgNDIuNDQzMyAxNC44NCA0MC42MDY5IDE0Ljg0TDQwLjU5NjkgMTQuODNaIiBvcGFjaXR5PSIwLjQiLz4mI3hhOzxnIG9wYWNpdHk9IjAuNyI+JiN4YTs8cGF0aCBmaWxsPSJ1cmwoI3BhaW50Nl9saW5lYXJfMzU3NDlfMTEyNzk4KSIgZD0iTTE1LjY1NTkgNC4wMDAwNkMxNC44MTc1IDQuMDAwMDYgMTQuMTY4OCA0Ljc1MDA2IDE0LjI4ODYgNS41ODAwNUMxNi4wNjUxIDE3LjgzIDI2LjU0NDMgMjYuOTEgMzguODk5OCAyNi45MUg0MC45NjU4QzQyLjY0MjQgMjYuOTEgNDMuOTk5OCAyOC4yNyA0My45OTk4IDI5Ljk0OTlWMTguMTdDNDMuOTk5OCAxNi4zMyA0Mi41MTI3IDE0Ljg0IDQwLjY3NjMgMTQuODRIMzkuMjk5MUMzNC4xODkyIDE0Ljg0IDI5LjY3ODEgMTEuNSAyOC4xNzExIDYuNjAwMDVMMjcuNzMyIDUuMTgwMDZDMjcuNTEyNCA0LjQ4MDA2IDI2Ljg3MzcgNC4wMDAwNiAyNi4xNDUxIDQuMDAwMDZIMTUuNjY1OEgxNS42NTU5WiIvPiYjeGE7PC9nPiYjeGE7PGRlZnM+JiN4YTs8bGluZWFyR3JhZGllbnQgZ3JhZGllbnRVbml0cz0idXNlclNwYWNlT25Vc2UiIHkyPSIxOC40MDQ3IiB4Mj0iNDQuMTU1MiIgeTE9IjQ1Ljk2IiB4MT0iMTYuNTQ1NCIgaWQ9InBhaW50MF9saW5lYXJfMzU3NDlfMTEyNzk4Ij4mI3hhOzxzdG9wIHN0b3AtY29sb3I9IiMwRDcwMTIiIG9mZnNldD0iMC4yNiIvPiYjeGE7PHN0b3Agc3RvcC1jb2xvcj0iIzA4NTcxNCIgb2Zmc2V0PSIxIi8+JiN4YTs8L2xpbmVhckdyYWRpZW50PiYjeGE7PGxpbmVhckdyYWRpZW50IGdyYWRpZW50VW5pdHM9InVzZXJTcGFjZU9uVXNlIiB5Mj0iMzcuNzI2MyIgeDI9IjUuMDI4NDgiIHkxPSIyNi4xMTAxIiB4MT0iNTcuNDE0NSIgaWQ9InBhaW50MV9saW5lYXJfMzU3NDlfMTEyNzk4Ij4mI3hhOzxzdG9wIHN0b3AtY29sb3I9IiMxMTRBOEEiIG9mZnNldD0iMC4wNCIvPiYjeGE7PHN0b3Agc3RvcC1vcGFjaXR5PSIwIiBzdG9wLWNvbG9yPSIjMEM1OUEzIiBvZmZzZXQ9IjEiLz4mI3hhOzwvbGluZWFyR3JhZGllbnQ+JiN4YTs8bGluZWFyR3JhZGllbnQgZ3JhZGllbnRVbml0cz0idXNlclNwYWNlT25Vc2UiIHkyPSIyMy45OTk5IiB4Mj0iMzYuMjQ2MiIgeTE9IjIzLjk5OTkiIHgxPSItMTYuODU4NyIgaWQ9InBhaW50Ml9saW5lYXJfMzU3NDlfMTEyNzk4Ij4mI3hhOzxzdG9wIHN0b3AtY29sb3I9IiMxMDdDMTAiLz4mI3hhOzxzdG9wIHN0b3AtY29sb3I9IiM1NkI1MEUiIG9mZnNldD0iMC45NiIvPiYjeGE7PC9saW5lYXJHcmFkaWVudD4mI3hhOzxyYWRpYWxHcmFkaWVudCBncmFkaWVudFRyYW5zZm9ybT0idHJhbnNsYXRlKDMwLjQ3MjggMjEuODMwMikgcm90YXRlKC01Ni4zMjIyKSBzY2FsZSgxMC4xNjM4IDI1Ljg5OCkiIGdyYWRpZW50VW5pdHM9InVzZXJTcGFjZU9uVXNlIiByPSIxIiBjeT0iMCIgY3g9IjAiIGlkPSJwYWludDNfcmFkaWFsXzM1NzQ5XzExMjc5OCI+JiN4YTs8c3RvcCBzdG9wLW9wYWNpdHk9IjAuMyIvPiYjeGE7PHN0b3Agc3RvcC1vcGFjaXR5PSIwIiBvZmZzZXQ9IjEiLz4mI3hhOzwvcmFkaWFsR3JhZGllbnQ+JiN4YTs8bGluZWFyR3JhZGllbnQgZ3JhZGllbnRVbml0cz0idXNlclNwYWNlT25Vc2UiIHkyPSIwLjc5Nzk2NiIgeDI9IjE5Ljk2OTkiIHkxPSIzNy42NTk5IiB4MT0iNDUuODI3MiIgaWQ9InBhaW50NF9saW5lYXJfMzU3NDlfMTEyNzk4Ij4mI3hhOzxzdG9wIHN0b3AtY29sb3I9IiMzMzk4MEYiIG9mZnNldD0iMC4wNCIvPiYjeGE7PHN0b3Agc3RvcC1jb2xvcj0iI0JBRTg4NCIgb2Zmc2V0PSIxIi8+JiN4YTs8L2xpbmVhckdyYWRpZW50PiYjeGE7PGxpbmVhckdyYWRpZW50IGdyYWRpZW50VW5pdHM9InVzZXJTcGFjZU9uVXNlIiB5Mj0iMjEuNCIgeDI9IjQzLjgwMDYiIHkxPSIyMS40IiB4MT0iMzcuNzkyNSIgaWQ9InBhaW50NV9saW5lYXJfMzU3NDlfMTEyNzk4Ij4mI3hhOzxzdG9wIHN0b3Atb3BhY2l0eT0iMCIgc3RvcC1jb2xvcj0iI0U1RkFDMSIvPiYjeGE7PHN0b3Agc3RvcC1vcGFjaXR5PSIwLjUyIiBzdG9wLWNvbG9yPSIjRTVGQUMxIiBvZmZzZXQ9IjAuNTYiLz4mI3hhOzxzdG9wIHN0b3AtY29sb3I9IiNFNUZBQzEiIG9mZnNldD0iMSIvPiYjeGE7PC9saW5lYXJHcmFkaWVudD4mI3hhOzxsaW5lYXJHcmFkaWVudCBncmFkaWVudFVuaXRzPSJ1c2VyU3BhY2VPblVzZSIgeTI9IjEyLjAzMzQiIHgyPSIyOC41MzY1IiB5MT0iLTE0LjkwOTkiIHgxPSIxMi45NDEyIiBpZD0icGFpbnQ2X2xpbmVhcl8zNTc0OV8xMTI3OTgiPiYjeGE7PHN0b3Agc3RvcC1jb2xvcj0iI0ZERTEwMCIgb2Zmc2V0PSIwLjE0Ii8+JiN4YTs8c3RvcCBzdG9wLW9wYWNpdHk9IjAiIHN0b3AtY29sb3I9IiNGRkM2MDAiIG9mZnNldD0iMC45OCIvPiYjeGE7PC9saW5lYXJHcmFkaWVudD4mI3hhOzwvZGVmcz4mI3hhOzwvc3ZnPg==;fontStyle=1;labelBackgroundColor=default;fontColor=#0066CC;fontSize=14;fontFamily=Segoe UI;" parent="1" vertex="1">
                    <mxGeometry x="390" y="690" width="48" height="48" as="geometry"/>
                </mxCell>
                <mxCell id="23" value="" style="endArrow=none;dashed=1;html=1;dashPattern=1 3;strokeWidth=3;fontSize=14;fontColor=#000099;strokeColor=#000099;fontFamily=Segoe UI;" parent="1" edge="1">
                    <mxGeometry width="50" height="50" relative="1" as="geometry">
                        <mxPoint x="800" y="748" as="sourcePoint"/>
                        <mxPoint x="800" y="338" as="targetPoint"/>
                    </mxGeometry>
                </mxCell>
                <mxCell id="24" value="&lt;font color=&quot;#0066cc&quot; style=&quot;font-size: 14px;&quot;&gt;DATA PIPELINE&lt;/font&gt;" style="text;html=1;strokeColor=none;fillColor=none;align=left;verticalAlign=middle;whiteSpace=wrap;rounded=0;strokeWidth=3;fontSize=14;fontStyle=1;fontColor=#000099;fontFamily=Segoe UI;" parent="1" vertex="1">
                    <mxGeometry x="63.5" y="329" width="149" height="30" as="geometry"/>
                </mxCell>
                <mxCell id="25" value="&lt;font color=&quot;#0066cc&quot; style=&quot;font-size: 14px;&quot;&gt;DATA SOURCE&lt;/font&gt;" style="text;html=1;strokeColor=none;fillColor=none;align=left;verticalAlign=middle;whiteSpace=wrap;rounded=0;strokeWidth=3;fontSize=14;fontStyle=1;fontColor=#000099;fontFamily=Segoe UI;" parent="1" vertex="1">
                    <mxGeometry x="-95" y="329" width="149" height="30" as="geometry"/>
                </mxCell>
                <mxCell id="26" value="&lt;font color=&quot;#0066cc&quot; style=&quot;font-size: 14px;&quot;&gt;SERVING&lt;/font&gt;" style="text;html=1;strokeColor=none;fillColor=none;align=left;verticalAlign=middle;whiteSpace=wrap;rounded=0;strokeWidth=3;fontSize=14;fontStyle=1;fontColor=#000099;fontFamily=Segoe UI;" parent="1" vertex="1">
                    <mxGeometry x="808" y="329" width="149" height="30" as="geometry"/>
                </mxCell>
                <mxCell id="34" value="" style="group;fontFamily=Segoe UI;" parent="1" vertex="1" connectable="0">
                    <mxGeometry x="340" y="290" width="189" height="40" as="geometry"/>
                </mxCell>
                <mxCell id="32" value="" style="shape=image;verticalLabelPosition=bottom;verticalAlign=top;imageAspect=0;aspect=fixed;image=data:image/svg+xml,PHN2ZyB4bWxucz0iaHR0cDovL3d3dy53My5vcmcvMjAwMC9zdmciIGZpbGw9Im5vbmUiIHZpZXdCb3g9IjAgMCAyNTYgMjU2IiBoZWlnaHQ9IjI1NiIgd2lkdGg9IjI1NiI+JiN4YTs8ZyBjbGlwLXBhdGg9InVybCgjY2xpcDBfMTI2M18xMjQ1OTApIj4mI3hhOzxwYXRoIGZpbGw9InVybCgjcGFpbnQwX2xpbmVhcl8xMjYzXzEyNDU5MCkiIGQ9Ik0xMC40OTYgMTc2LjYzNEw2Ljc0NjY5IDE5MC4zNTZDNS4zNDkzNyAxOTQuNzQ2IDMuMzkyMDUgMjAxLjE5NCAyLjMzNjA2IDIwNi45MzJDMC44MzIwNjkgMjEwLjkgMC4wMTA3NDIyIDIxNS4yMDQgMC4wMTA3NDIyIDIxOS43QzAuMDEwNzQyMiAyMzguMjM5IDE0LjAxNiAyNTMuNTAyIDMyLjAyMTIgMjU1LjQ5N0MzNy4wODc4IDI1Ni4yMjggNDIuODIxMSAyNTYuMTkgNDkuMjQ3NyAyNTUuMjQ2TDc4Ljc3MjggMjUxLjE3MkM4Ni4xOTY3IDI1MC4xNDggOTIuMjkyNyAyNDQuNzg4IDk0LjI2NiAyMzcuNTU2TDExNC41ODYgMTYyLjkyMkwxMC40OTYgMTc2LjYzNFoiIGNsaXAtcnVsZT0iZXZlbm9kZCIgZmlsbC1ydWxlPSJldmVub2RkIi8+JiN4YTs8cGF0aCBmaWxsPSJ1cmwoI3BhaW50MV9saW5lYXJfMTI2M18xMjQ1OTApIiBkPSJNMzkuMjk0MiAxODAuMTdDOC4xNzQ0NCAxODQuOTkxIDEuNzg1MTYgMjA4LjQ3NCAxLjc4NTE2IDIwOC40NzRMMzEuNTg3NiA5OC45NzA4TDE4Ny4zMTQgNzcuOTA0M0wxNjYuMDc3IDE1NS4wNEMxNjQuOTczIDE1OS4xNzMgMTYxLjUwMSAxNjIuMzQxIDE1Ny4xOTcgMTYyLjk5N0wxNTYuMzI4IDE2My4xNDFMMzguNDE5NSAxODAuMzJMMzkuMjk0MiAxODAuMTdaIi8+JiN4YTs8cGF0aCBmaWxsLW9wYWNpdHk9IjAuOCIgZmlsbD0idXJsKCNwYWludDJfbGluZWFyXzEyNjNfMTI0NTkwKSIgZD0iTTM5LjI5NDIgMTgwLjE3QzguMTc0NDQgMTg0Ljk5MSAxLjc4NTE2IDIwOC40NzQgMS43ODUxNiAyMDguNDc0TDMxLjU4NzYgOTguOTcwOEwxODcuMzE0IDc3LjkwNDNMMTY2LjA3NyAxNTUuMDRDMTY0Ljk3MyAxNTkuMTczIDE2MS41MDEgMTYyLjM0MSAxNTcuMTk3IDE2Mi45OTdMMTU2LjMyOCAxNjMuMTQxTDM4LjQxOTUgMTgwLjMyTDM5LjI5NDIgMTgwLjE3WiIvPiYjeGE7PHBhdGggZmlsbD0idXJsKCNwYWludDNfbGluZWFyXzEyNjNfMTI0NTkwKSIgZD0iTTU2Ljk1MzIgMTEwLjMwM0wyMjkuMzUyIDg0LjgzNjdDMjMzLjQ1MyA4NC4yNzY3IDIzNi43NzYgODEuMjc0IDIzNy44MjEgNzcuMzQzNEwyNTUuNjEzIDEyLjk1NDZDMjU1Ljg1OCAxMi4wNzk5IDI1NS45ODYgMTEuMTU3MiAyNTUuOTg2IDEwLjIwNzlDMjU1Ljk4NiA0LjU3MDYzIDI1MS40MjEgMCAyNDUuNzc4IDBDMjQ1LjM0MSAwIDI0NC45MDQgMC4wMjY2NjY1IDI0NC40ODIgMC4wNzk5OTk0TDc5Ljk4MjQgMjQuMzg5MUM2Mi4xMTU4IDI3LjI1ODUgNDcuNjg5MyA0MC40MzcgNDMuMDA2NyA1Ny42MjYyTDE5LjI4NDIgMTQzLjYwNEMyNC4wNDY4IDEyNi4yMTIgMjYuOTc0OCAxMTUuNzI3IDU2Ljk1MzIgMTEwLjMwM1oiLz4mI3hhOzxwYXRoIGZpbGw9InVybCgjcGFpbnQ0X2xpbmVhcl8xMjYzXzEyNDU5MCkiIGQ9Ik01Ni45NTMyIDExMC4zMDNMMjI5LjM1MiA4NC44MzY3QzIzMy40NTMgODQuMjc2NyAyMzYuNzc2IDgxLjI3NCAyMzcuODIxIDc3LjM0MzRMMjU1LjYxMyAxMi45NTQ2QzI1NS44NTggMTIuMDc5OSAyNTUuOTg2IDExLjE1NzIgMjU1Ljk4NiAxMC4yMDc5QzI1NS45ODYgNC41NzA2MyAyNTEuNDIxIDAgMjQ1Ljc3OCAwQzI0NS4zNDEgMCAyNDQuOTA0IDAuMDI2NjY2NSAyNDQuNDgyIDAuMDc5OTk5NEw3OS45ODI0IDI0LjM4OTFDNjIuMTE1OCAyNy4yNTg1IDQ3LjY4OTMgNDAuNDM3IDQzLjAwNjcgNTcuNjI2MkwxOS4yODQyIDE0My42MDRDMjQuMDQ2OCAxMjYuMjEyIDI2Ljk3NDggMTE1LjcyNyA1Ni45NTMyIDExMC4zMDNaIi8+JiN4YTs8cGF0aCBmaWxsPSJ1cmwoI3BhaW50NV9saW5lYXJfMTI2M18xMjQ1OTApIiBkPSJNNTYuOTUzMiAxMTAuMzAzTDIyOS4zNTIgODQuODM2N0MyMzMuNDUzIDg0LjI3NjcgMjM2Ljc3NiA4MS4yNzQgMjM3LjgyMSA3Ny4zNDM0TDI1NS42MTMgMTIuOTU0NkMyNTUuODU4IDEyLjA3OTkgMjU1Ljk4NiAxMS4xNTcyIDI1NS45ODYgMTAuMjA3OUMyNTUuOTg2IDQuNTcwNjMgMjUxLjQyMSAwIDI0NS43NzggMEMyNDUuMzQxIDAgMjQ0LjkwNCAwLjAyNjY2NjUgMjQ0LjQ4MiAwLjA3OTk5OTRMNzkuOTgyNCAyNC4zODkxQzYyLjExNTggMjcuMjU4NSA0Ny42ODkzIDQwLjQzNyA0My4wMDY3IDU3LjYyNjJMMTkuMjg0MiAxNDMuNjA0QzI0LjA0NjggMTI2LjIxMiAyNi45NzQ4IDExNS43MjcgNTYuOTUzMiAxMTAuMzAzWiIvPiYjeGE7PHBhdGggZmlsbD0idXJsKCNwYWludDZfbGluZWFyXzEyNjNfMTI0NTkwKSIgZD0iTTU2Ljk1MzIgMTEwLjMwM0wyMjkuMzUyIDg0LjgzNjdDMjMzLjQ1MyA4NC4yNzY3IDIzNi43NzYgODEuMjc0IDIzNy44MjEgNzcuMzQzNEwyNTUuNjEzIDEyLjk1NDZDMjU1Ljg1OCAxMi4wNzk5IDI1NS45ODYgMTEuMTU3MiAyNTUuOTg2IDEwLjIwNzlDMjU1Ljk4NiA0LjU3MDYzIDI1MS40MjEgMCAyNDUuNzc4IDBDMjQ1LjM0MSAwIDI0NC45MDQgMC4wMjY2NjY1IDI0NC40ODIgMC4wNzk5OTk0TDc5Ljk4MjQgMjQuMzg5MUM2Mi4xMTU4IDI3LjI1ODUgNDcuNjg5MyA0MC40MzcgNDMuMDA2NyA1Ny42MjYyTDE5LjI4NDIgMTQzLjYwNEMyNC4wNDY4IDEyNi4yMTIgMjYuOTc0OCAxMTUuNzI3IDU2Ljk1MzIgMTEwLjMwM1oiLz4mI3hhOzxwYXRoIGZpbGw9InVybCgjcGFpbnQ3X2xpbmVhcl8xMjYzXzEyNDU5MCkiIGQ9Ik01Ni45NTMyIDExMC4zMDNMMjI5LjM1MiA4NC44MzY3QzIzMy40NTMgODQuMjc2NyAyMzYuNzc2IDgxLjI3NCAyMzcuODIxIDc3LjM0MzRMMjU1LjYxMyAxMi45NTQ2QzI1NS44NTggMTIuMDc5OSAyNTUuOTg2IDExLjE1NzIgMjU1Ljk4NiAxMC4yMDc5QzI1NS45ODYgNC41NzA2MyAyNTEuNDIxIDAgMjQ1Ljc3OCAwQzI0NS4zNDEgMCAyNDQuOTA0IDAuMDI2NjY2NSAyNDQuNDgyIDAuMDc5OTk5NEw3OS45ODI0IDI0LjM4OTFDNjIuMTE1OCAyNy4yNTg1IDQ3LjY4OTMgNDAuNDM3IDQzLjAwNjcgNTcuNjI2MkwxOS4yODQyIDE0My42MDRDMjQuMDQ2OCAxMjYuMjEyIDI2Ljk3NDggMTE1LjcyNyA1Ni45NTMyIDExMC4zMDNaIi8+JiN4YTs8cGF0aCBmaWxsPSJ1cmwoI3BhaW50OF9saW5lYXJfMTI2M18xMjQ1OTApIiBkPSJNNTYuOTUzMiAxMTAuMzAzTDIyOS4zNTIgODQuODM2N0MyMzMuNDUzIDg0LjI3NjcgMjM2Ljc3NiA4MS4yNzQgMjM3LjgyMSA3Ny4zNDM0TDI1NS42MTMgMTIuOTU0NkMyNTUuODU4IDEyLjA3OTkgMjU1Ljk4NiAxMS4xNTcyIDI1NS45ODYgMTAuMjA3OUMyNTUuOTg2IDQuNTcwNjMgMjUxLjQyMSAwIDI0NS43NzggMEMyNDUuMzQxIDAgMjQ0LjkwNCAwLjAyNjY2NjUgMjQ0LjQ4MiAwLjA3OTk5OTRMNzkuOTgyNCAyNC4zODkxQzYyLjExNTggMjcuMjU4NSA0Ny42ODkzIDQwLjQzNyA0My4wMDY3IDU3LjYyNjJMMTkuMjg0MiAxNDMuNjA0QzI0LjA0NjggMTI2LjIxMiAyNi45NzQ4IDExNS43MjcgNTYuOTUzMiAxMTAuMzAzWiIvPiYjeGE7PHBhdGggZmlsbC1vcGFjaXR5PSIwLjQiIGZpbGw9InVybCgjcGFpbnQ5X2xpbmVhcl8xMjYzXzEyNDU5MCkiIGQ9Ik01Ni45NTMyIDExMC4zMDNMMjI5LjM1MiA4NC44MzY3QzIzMy40NTMgODQuMjc2NyAyMzYuNzc2IDgxLjI3NCAyMzcuODIxIDc3LjM0MzRMMjU1LjYxMyAxMi45NTQ2QzI1NS44NTggMTIuMDc5OSAyNTUuOTg2IDExLjE1NzIgMjU1Ljk4NiAxMC4yMDc5QzI1NS45ODYgNC41NzA2MyAyNTEuNDIxIDAgMjQ1Ljc3OCAwQzI0NS4zNDEgMCAyNDQuOTA0IDAuMDI2NjY2NSAyNDQuNDgyIDAuMDc5OTk5NEw3OS45ODI0IDI0LjM4OTFDNjIuMTE1OCAyNy4yNTg1IDQ3LjY4OTMgNDAuNDM3IDQzLjAwNjcgNTcuNjI2MkwxOS4yODQyIDE0My42MDRDMjQuMDQ2OCAxMjYuMjEyIDI2Ljk3NDggMTE1LjcyNyA1Ni45NTMyIDExMC4zMDNaIi8+JiN4YTs8cGF0aCBmaWxsPSJ1cmwoI3BhaW50MTBfbGluZWFyXzEyNjNfMTI0NTkwKSIgZD0iTTU2Ljk1MjcgMTEwLjMwOUMzMS45ODc2IDExNC44MjcgMjUuNzkwMyAxMjIuODY5IDIxLjY2MjMgMTM1LjQ3MkwxLjc4NTE2IDIwOC40OUMxLjc4NTE2IDIwOC40OSA4LjEzNzExIDE4NS4yNDIgMzguODc4MiAxODAuMjcxTDE1Ni4zMzMgMTYzLjE2MkwxNTcuMjAzIDE2My4wMThDMTYxLjUwNyAxNjIuMzYyIDE2NC45NzkgMTU5LjE4OSAxNjYuMDgzIDE1NS4wNjFMMTgzLjU1NCA5MS42MDU1TDU2Ljk1ODEgMTEwLjMwOUg1Ni45NTI3WiIvPiYjeGE7PHBhdGggZmlsbC1vcGFjaXR5PSIwLjIiIGZpbGw9InVybCgjcGFpbnQxMV9saW5lYXJfMTI2M18xMjQ1OTApIiBkPSJNNTYuOTUyNyAxMTAuMzA5QzMxLjk4NzYgMTE0LjgyNyAyNS43OTAzIDEyMi44NjkgMjEuNjYyMyAxMzUuNDcyTDEuNzg1MTYgMjA4LjQ5QzEuNzg1MTYgMjA4LjQ5IDguMTM3MTEgMTg1LjI0MiAzOC44NzgyIDE4MC4yNzFMMTU2LjMzMyAxNjMuMTYyTDE1Ny4yMDMgMTYzLjAxOEMxNjEuNTA3IDE2Mi4zNjIgMTY0Ljk3OSAxNTkuMTg5IDE2Ni4wODMgMTU1LjA2MUwxODMuNTU0IDkxLjYwNTVMNTYuOTU4MSAxMTAuMzA5SDU2Ljk1MjdaIi8+JiN4YTs8cGF0aCBmaWxsPSJ1cmwoI3BhaW50MTJfbGluZWFyXzEyNjNfMTI0NTkwKSIgZD0iTTM4Ljg3OTggMTgwLjI3MkMxMi45MDEzIDE4NC40NzUgNC4zNjgwNCAyMDEuNjggMi4zMzYwNiAyMDYuOTIzQzAuODMyMDY5IDIxMC45MDEgMC4wMTA3NDIyIDIxNS4yMDUgMC4wMTA3NDIyIDIxOS43MDFDMC4wMTA3NDIyIDIzOC4yNCAxNC4wMTYgMjUzLjUwNCAzMi4wMjEyIDI1NS40OThDMzcuMDg3OCAyNTYuMjI5IDQyLjgyMTEgMjU2LjE5MiA0OS4yNDc3IDI1NS4yNDhMNzguNzcyOCAyNTEuMTczQzg2LjE5NjcgMjUwLjE0OSA5Mi4yOTI3IDI0NC43ODkgOTQuMjY2IDIzNy41NTdMMTEyLjc4OSAxNjkuNTFMMzguODg1MSAxODAuMjc4TDM4Ljg3OTggMTgwLjI3MloiIGNsaXAtcnVsZT0iZXZlbm9kZCIgZmlsbC1ydWxlPSJldmVub2RkIi8+JiN4YTs8L2c+JiN4YTs8ZGVmcz4mI3hhOzxsaW5lYXJHcmFkaWVudCBncmFkaWVudFVuaXRzPSJ1c2VyU3BhY2VPblVzZSIgeTI9IjE2Mi45MjIiIHgyPSI1Ny4yOTU2IiB5MT0iMjU2LjAwNCIgeDE9IjU3LjI5NTYiIGlkPSJwYWludDBfbGluZWFyXzEyNjNfMTI0NTkwIj4mI3hhOzxzdG9wIHN0b3AtY29sb3I9IiMyQUFDOTQiIG9mZnNldD0iMC4wNTYiLz4mI3hhOzxzdG9wIHN0b3AtY29sb3I9IiMyMzlDODciIG9mZnNldD0iMC4xNTUiLz4mI3hhOzxzdG9wIHN0b3AtY29sb3I9IiMxNzdFNzEiIG9mZnNldD0iMC4zNzIiLz4mI3hhOzxzdG9wIHN0b3AtY29sb3I9IiMwRTY5NjEiIG9mZnNldD0iMC41ODgiLz4mI3hhOzxzdG9wIHN0b3AtY29sb3I9IiMwOTVENTciIG9mZnNldD0iMC43OTkiLz4mI3hhOzxzdG9wIHN0b3AtY29sb3I9IiMwODU5NTQiIG9mZnNldD0iMSIvPiYjeGE7PC9saW5lYXJHcmFkaWVudD4mI3hhOzxsaW5lYXJHcmFkaWVudCBncmFkaWVudFVuaXRzPSJ1c2VyU3BhY2VPblVzZSIgeTI9IjkwLjcwNDIiIHgyPSI4NS4wMzI1IiB5MT0iMTg4LjQ2NSIgeDE9IjE3NC45MTYiIGlkPSJwYWludDFfbGluZWFyXzEyNjNfMTI0NTkwIj4mI3hhOzxzdG9wIHN0b3AtY29sb3I9IiNBQkU4OEUiIG9mZnNldD0iMC4wNDE3NDc4Ii8+JiN4YTs8c3RvcCBzdG9wLWNvbG9yPSIjMkFBQTkyIiBvZmZzZXQ9IjAuNTQ4OTI2Ii8+JiN4YTs8c3RvcCBzdG9wLWNvbG9yPSIjMTE3ODY1IiBvZmZzZXQ9IjAuOTA2Ii8+JiN4YTs8L2xpbmVhckdyYWRpZW50PiYjeGE7PGxpbmVhckdyYWRpZW50IGdyYWRpZW50VW5pdHM9InVzZXJTcGFjZU9uVXNlIiB5Mj0iMTU0LjU0MiIgeDI9IjM5LjU3MTEiIHkxPSIxODMuNzEyIiB4MT0iLTQ1Ljk2NiIgaWQ9InBhaW50Ml9saW5lYXJfMTI2M18xMjQ1OTAiPiYjeGE7PHN0b3Agc3RvcC1jb2xvcj0iIzZBRDZGOSIvPiYjeGE7PHN0b3Agc3RvcC1vcGFjaXR5PSIwIiBzdG9wLWNvbG9yPSIjNkFENkY5IiBvZmZzZXQ9IjEiLz4mI3hhOzwvbGluZWFyR3JhZGllbnQ+JiN4YTs8bGluZWFyR3JhZGllbnQgZ3JhZGllbnRVbml0cz0idXNlclNwYWNlT25Vc2UiIHkyPSI3MS44MDIxIiB4Mj0iMjQ2Ljk2OCIgeTE9IjcxLjgwMjEiIHgxPSIxOS4yODQyIiBpZD0icGFpbnQzX2xpbmVhcl8xMjYzXzEyNDU5MCI+JiN4YTs8c3RvcCBzdG9wLWNvbG9yPSIjMjVGRkQ0IiBvZmZzZXQ9IjAuMDQzIi8+JiN4YTs8c3RvcCBzdG9wLWNvbG9yPSIjNTVEREI5IiBvZmZzZXQ9IjAuODc0Ii8+JiN4YTs8L2xpbmVhckdyYWRpZW50PiYjeGE7PGxpbmVhckdyYWRpZW50IGdyYWRpZW50VW5pdHM9InVzZXJTcGFjZU9uVXNlIiB5Mj0iMTE0LjYxMiIgeDI9IjE1NS43NDciIHkxPSI5LjkwOTI2IiB4MT0iMTA2LjkyMSIgaWQ9InBhaW50NF9saW5lYXJfMTI2M18xMjQ1OTAiPiYjeGE7PHN0b3Agc3RvcC1vcGFjaXR5PSIwLjYiIHN0b3AtY29sb3I9IiNGNEUwODQiLz4mI3hhOzxzdG9wIHN0b3Atb3BhY2l0eT0iMCIgc3RvcC1jb2xvcj0iI0Y0RTA4NCIgb2Zmc2V0PSIwLjUzNCIvPiYjeGE7PC9saW5lYXJHcmFkaWVudD4mI3hhOzxsaW5lYXJHcmFkaWVudCBncmFkaWVudFVuaXRzPSJ1c2VyU3BhY2VPblVzZSIgeTI9IjQ1LjgzNSIgeDI9IjI1My45OCIgeTE9Ii01NS4yNjQxIiB4MT0iMTg4LjE2MiIgaWQ9InBhaW50NV9saW5lYXJfMTI2M18xMjQ1OTAiPiYjeGE7PHN0b3Agc3RvcC1jb2xvcj0iI0FCRjVFMiIvPiYjeGE7PHN0b3Agc3RvcC1jb2xvcj0iIzRFRTZCRCIgb2Zmc2V0PSIxIi8+JiN4YTs8L2xpbmVhckdyYWRpZW50PiYjeGE7PGxpbmVhckdyYWRpZW50IGdyYWRpZW50VW5pdHM9InVzZXJTcGFjZU9uVXNlIiB5Mj0iMTQzLjYwNCIgeDI9IjEzNy42MzUiIHkxPSIwIiB4MT0iMTM3LjYzNSIgaWQ9InBhaW50Nl9saW5lYXJfMTI2M18xMjQ1OTAiPiYjeGE7PHN0b3Agc3RvcC1jb2xvcj0iIzFGOTM3RSIvPiYjeGE7PHN0b3Agc3RvcC1jb2xvcj0iIzlFRTA5RiIgb2Zmc2V0PSIxIi8+JiN4YTs8L2xpbmVhckdyYWRpZW50PiYjeGE7PGxpbmVhckdyYWRpZW50IGdyYWRpZW50VW5pdHM9InVzZXJTcGFjZU9uVXNlIiB5Mj0iMTQzLjYwNCIgeDI9IjEzNy42MzUiIHkxPSIwIiB4MT0iMTM3LjYzNSIgaWQ9InBhaW50N19saW5lYXJfMTI2M18xMjQ1OTAiPiYjeGE7PHN0b3Agc3RvcC1jb2xvcj0iIzFGOTM3RSIvPiYjeGE7PHN0b3Agc3RvcC1jb2xvcj0iI0MwRUNDNyIgb2Zmc2V0PSIxIi8+JiN4YTs8L2xpbmVhckdyYWRpZW50PiYjeGE7PGxpbmVhckdyYWRpZW50IGdyYWRpZW50VW5pdHM9InVzZXJTcGFjZU9uVXNlIiB5Mj0iMTM1LjIxNiIgeDI9IjIyNC4zODIiIHkxPSIzOS45NzgzIiB4MT0iMTkuMjg0MiIgaWQ9InBhaW50OF9saW5lYXJfMTI2M18xMjQ1OTAiPiYjeGE7PHN0b3Agc3RvcC1jb2xvcj0iIzZBRDZGOSIvPiYjeGE7PHN0b3Agc3RvcC1jb2xvcj0iIzYwRTlEMCIgb2Zmc2V0PSIwLjIyOTUwMSIvPiYjeGE7PHN0b3Agc3RvcC1jb2xvcj0iIzZERTlCQiIgb2Zmc2V0PSIwLjY1MDcxMSIvPiYjeGE7PHN0b3Agc3RvcC1jb2xvcj0iI0FCRTg4RSIgb2Zmc2V0PSIwLjk5MzU0Ii8+JiN4YTs8L2xpbmVhckdyYWRpZW50PiYjeGE7PGxpbmVhckdyYWRpZW50IGdyYWRpZW50VW5pdHM9InVzZXJTcGFjZU9uVXNlIiB5Mj0iODIuNDY2IiB4Mj0iMTQ5Ljc4MSIgeTE9IjU3LjgiIHgxPSIzOC4yNTgiIGlkPSJwYWludDlfbGluZWFyXzEyNjNfMTI0NTkwIj4mI3hhOzxzdG9wIHN0b3Atb3BhY2l0eT0iMCIgc3RvcC1jb2xvcj0id2hpdGUiLz4mI3hhOzxzdG9wIHN0b3AtY29sb3I9IndoaXRlIiBvZmZzZXQ9IjAuNDU4NTExIi8+JiN4YTs8c3RvcCBzdG9wLW9wYWNpdHk9IjAiIHN0b3AtY29sb3I9IndoaXRlIiBvZmZzZXQ9IjEiLz4mI3hhOzwvbGluZWFyR3JhZGllbnQ+JiN4YTs8bGluZWFyR3JhZGllbnQgZ3JhZGllbnRVbml0cz0idXNlclNwYWNlT25Vc2UiIHkyPSI3NS4xMzI4IiB4Mj0iNzcuODcyMiIgeTE9IjE1My4zNDEiIHgxPSI3NS4yMzciIGlkPSJwYWludDEwX2xpbmVhcl8xMjYzXzEyNDU5MCI+JiN4YTs8c3RvcCBzdG9wLW9wYWNpdHk9IjAiIHN0b3AtY29sb3I9IiMwNjNEM0IiIG9mZnNldD0iMC4yMDQ2NDIiLz4mI3hhOzxzdG9wIHN0b3Atb3BhY2l0eT0iMC4yMzY1ODciIHN0b3AtY29sb3I9IiMwNjNEM0IiIG9mZnNldD0iMC41ODU1MyIvPiYjeGE7PHN0b3Agc3RvcC1vcGFjaXR5PSIwLjc1IiBzdG9wLWNvbG9yPSIjMDYzRDNCIiBvZmZzZXQ9IjAuODcyMjg1Ii8+JiN4YTs8L2xpbmVhckdyYWRpZW50PiYjeGE7PGxpbmVhckdyYWRpZW50IGdyYWRpZW50VW5pdHM9InVzZXJTcGFjZU9uVXNlIiB5Mj0iMTYzLjQ4NyIgeDI9Ijg3LjY4NjEiIHkxPSIxNDUuNTYzIiB4MT0iLTcuNjE3OTciIGlkPSJwYWludDExX2xpbmVhcl8xMjYzXzEyNDU5MCI+JiN4YTs8c3RvcCBzdG9wLW9wYWNpdHk9IjAiIHN0b3AtY29sb3I9IndoaXRlIi8+JiN4YTs8c3RvcCBzdG9wLWNvbG9yPSJ3aGl0ZSIgb2Zmc2V0PSIwLjQ1ODUxMSIvPiYjeGE7PHN0b3Agc3RvcC1vcGFjaXR5PSIwIiBzdG9wLWNvbG9yPSJ3aGl0ZSIgb2Zmc2V0PSIxIi8+JiN4YTs8L2xpbmVhckdyYWRpZW50PiYjeGE7PGxpbmVhckdyYWRpZW50IGdyYWRpZW50VW5pdHM9InVzZXJTcGFjZU9uVXNlIiB5Mj0iMTM5LjI5MiIgeDI9IjQyLjYzNTkiIHkxPSIyMzAuMjEzIiB4MT0iNjEuMjI2MyIgaWQ9InBhaW50MTJfbGluZWFyXzEyNjNfMTI0NTkwIj4mI3hhOzxzdG9wIHN0b3Atb3BhY2l0eT0iMCIgc3RvcC1jb2xvcj0iIzA2M0QzQiIgb2Zmc2V0PSIwLjA2NCIvPiYjeGE7PHN0b3Agc3RvcC1vcGFjaXR5PSIwLjEzNSIgc3RvcC1jb2xvcj0iIzA2M0QzQiIgb2Zmc2V0PSIwLjE3Ii8+JiN4YTs8c3RvcCBzdG9wLW9wYWNpdHk9IjAuNTk5IiBzdG9wLWNvbG9yPSIjMDYzRDNCIiBvZmZzZXQ9IjAuNTYyIi8+JiN4YTs8c3RvcCBzdG9wLW9wYWNpdHk9IjAuOSIgc3RvcC1jb2xvcj0iIzA2M0QzQiIgb2Zmc2V0PSIwLjg1Ii8+JiN4YTs8c3RvcCBzdG9wLWNvbG9yPSIjMDYzRDNCIiBvZmZzZXQ9IjEiLz4mI3hhOzwvbGluZWFyR3JhZGllbnQ+JiN4YTs8Y2xpcFBhdGggaWQ9ImNsaXAwXzEyNjNfMTI0NTkwIj4mI3hhOzxyZWN0IGZpbGw9IndoaXRlIiBoZWlnaHQ9IjI1NS45OTgiIHdpZHRoPSIyNTUuOTk4Ii8+JiN4YTs8L2NsaXBQYXRoPiYjeGE7PC9kZWZzPiYjeGE7PC9zdmc+;dashed=1;dashPattern=8 8;labelBackgroundColor=default;strokeWidth=3;fontSize=14;fontColor=#000099;fontFamily=Segoe UI;" parent="34" vertex="1">
                    <mxGeometry width="40" height="40" as="geometry"/>
                </mxCell>
                <mxCell id="33" value="&lt;font color=&quot;#0066cc&quot; face=&quot;Segoe UI&quot; style=&quot;font-size: 18px;&quot;&gt;Microsoft Fabric&lt;/font&gt;" style="text;html=1;strokeColor=none;fillColor=none;align=left;verticalAlign=middle;whiteSpace=wrap;rounded=0;strokeWidth=3;fontSize=14;fontStyle=1;fontColor=#000099;fontFamily=Segoe UI;" parent="34" vertex="1">
                    <mxGeometry x="40" y="5" width="149" height="30" as="geometry"/>
                </mxCell>
                <mxCell id="38" value="Data Pipeline" style="shape=image;verticalLabelPosition=bottom;verticalAlign=top;imageAspect=0;aspect=fixed;image=data:image/svg+xml,PHN2ZyB4bWxucz0iaHR0cDovL3d3dy53My5vcmcvMjAwMC9zdmciIGZpbGw9Im5vbmUiIHZpZXdCb3g9IjAgMCAzMiAzMyIgaGVpZ2h0PSIzMyIgd2lkdGg9IjMyIj4mI3hhOzxwYXRoIGZpbGw9ImJsYWNrIiBkPSJNMiA5LjMyODEyQzIgNy42NzEyNyAzLjM0MzE1IDYuMzI4MTIgNSA2LjMyODEyQzYuNjU2ODUgNi4zMjgxMiA4IDcuNjcxMjcgOCA5LjMyODEzTDI0IDkuMzI4MTJDMjQgNy42NzEyNyAyNS4zNDMxIDYuMzI4MTIgMjcgNi4zMjgxMkMyOC42NTY5IDYuMzI4MTIgMzAgNy42NzEyNyAzMCA5LjMyODEzVjIzLjMyODFDMzAgMjQuOTg1IDI4LjY1NjkgMjYuMzI4MSAyNyAyNi4zMjgxQzI1LjM0MzEgMjYuMzI4MSAyNCAyNC45ODUgMjQgMjMuMzI4MUg4QzggMjQuOTg1IDYuNjU2ODUgMjYuMzI4MSA1IDI2LjMyODFDMy4zNDMxNSAyNi4zMjgxIDIgMjQuOTg1IDIgMjMuMzI4MVY5LjMyODEyWk02IDkuMzI4MTNDNiA4Ljc3NTg0IDUuNTUyMjggOC4zMjgxMiA1IDguMzI4MTJDNC40NDc3MSA4LjMyODEyIDQgOC43NzU4NCA0IDkuMzI4MTJWMjMuMzI4MUM0IDIzLjg4MDQgNC40NDc3MiAyNC4zMjgxIDUgMjQuMzI4MUM1LjU1MjI5IDI0LjMyODEgNiAyMy44ODA0IDYgMjMuMzI4MVY5LjMyODEzWk04IDIxLjMyODFMMjQgMjEuMzI4MVYxMS4zMjgxTDggMTEuMzI4MVYyMS4zMjgxWk0yOCA5LjMyODEzQzI4IDguNzc1ODQgMjcuNTUyMyA4LjMyODEyIDI3IDguMzI4MTJDMjYuNDQ3NyA4LjMyODEyIDI2IDguNzc1ODQgMjYgOS4zMjgxMlYyMy4zMjgxQzI2IDIzLjg4MDQgMjYuNDQ3NyAyNC4zMjgxIDI3IDI0LjMyODFDMjcuNTUyMyAyNC4zMjgxIDI4IDIzLjg4MDQgMjggMjMuMzI4MVY5LjMyODEzWiIvPiYjeGE7PC9zdmc+;dashed=1;dashPattern=8 8;labelBackgroundColor=default;strokeWidth=0.5;fontSize=12;fontColor=#000000;fillColor=none;imageBackground=default;fontFamily=Segoe UI;" parent="1" vertex="1">
                    <mxGeometry x="90" y="694" width="32" height="33" as="geometry"/>
                </mxCell>
                <mxCell id="42" value="" style="edgeStyle=none;html=1;entryX=0;entryY=0.75;entryDx=0;entryDy=0;strokeWidth=1;fontSize=14;fontColor=#000099;fontFamily=Segoe UI;endArrow=none;" parent="1" source="SYjlbVsFbEoAXCGQWf2b-10" target="43" edge="1">
                    <mxGeometry relative="1" as="geometry">
                        <mxPoint x="720" y="536.3135" as="sourcePoint"/>
                        <mxPoint x="840" y="536.9975" as="targetPoint"/>
                    </mxGeometry>
                </mxCell>
                <mxCell id="43" value="" style="shape=image;verticalLabelPosition=bottom;verticalAlign=top;imageAspect=0;aspect=fixed;image=data:image/svg+xml,PHN2ZyB4bWxucz0iaHR0cDovL3d3dy53My5vcmcvMjAwMC9zdmciIGZpbGw9Im5vbmUiIHZpZXdCb3g9IjAgMCAzMiAzMyIgaGVpZ2h0PSIzMyIgd2lkdGg9IjMyIj4mI3hhOzxwYXRoIGZpbGw9ImJsYWNrIiBkPSJNMTIgMTMuMzc1QzEyIDE0LjIwMzQgMTEuMzI4NCAxNC44NzUgMTAuNSAxNC44NzVDOS42NzE1NyAxNC44NzUgOSAxNC4yMDM0IDkgMTMuMzc1QzkgMTIuNTQ2NiA5LjY3MTU3IDExLjg3NSAxMC41IDExLjg3NUMxMS4zMjg0IDExLjg3NSAxMiAxMi41NDY2IDEyIDEzLjM3NVpNMTAuNSAyMC44NzVDMTEuMzI4NCAyMC44NzUgMTIgMjAuMjAzNCAxMiAxOS4zNzVDMTIgMTguNTQ2NiAxMS4zMjg0IDE3Ljg3NSAxMC41IDE3Ljg3NUM5LjY3MTU3IDE3Ljg3NSA5IDE4LjU0NjYgOSAxOS4zNzVDOSAyMC4yMDM0IDkuNjcxNTcgMjAuODc1IDEwLjUgMjAuODc1Wk0xNiAyMC44NzVDMTYuODI4NCAyMC44NzUgMTcuNSAyMC4yMDM0IDE3LjUgMTkuMzc1QzE3LjUgMTguNTQ2NiAxNi44Mjg0IDE3Ljg3NSAxNiAxNy44NzVDMTUuMTcxNiAxNy44NzUgMTQuNSAxOC41NDY2IDE0LjUgMTkuMzc1QzE0LjUgMjAuMjAzNCAxNS4xNzE2IDIwLjg3NSAxNiAyMC44NzVaTTE2IDE0Ljg3NUMxNi44Mjg0IDE0Ljg3NSAxNy41IDE0LjIwMzQgMTcuNSAxMy4zNzVDMTcuNSAxMi41NDY2IDE2LjgyODQgMTEuODc1IDE2IDExLjg3NUMxNS4xNzE2IDExLjg3NSAxNC41IDEyLjU0NjYgMTQuNSAxMy4zNzVDMTQuNSAxNC4yMDM0IDE1LjE3MTYgMTQuODc1IDE2IDE0Ljg3NVpNMjEuNSAxNC44NzVDMjIuMzI4NCAxNC44NzUgMjMgMTQuMjAzNCAyMyAxMy4zNzVDMjMgMTIuNTQ2NiAyMi4zMjg0IDExLjg3NSAyMS41IDExLjg3NUMyMC42NzE2IDExLjg3NSAyMCAxMi41NDY2IDIwIDEzLjM3NUMyMCAxNC4yMDM0IDIwLjY3MTYgMTQuODc1IDIxLjUgMTQuODc1Wk03LjUgMy44NzVDNS4wMTQ3MiAzLjg3NSAzIDUuODg5NzIgMyA4LjM3NVYyNS4zNzVDMyAyNy44NjAzIDUuMDE0NzIgMjkuODc1IDcuNSAyOS44NzVIMjQuNUMyNi45ODUzIDI5Ljg3NSAyOSAyNy44NjAzIDI5IDI1LjM3NVY4LjM3NUMyOSA1Ljg4OTcyIDI2Ljk4NTMgMy44NzUgMjQuNSAzLjg3NUg3LjVaTTUgOC4zNzVDNSA2Ljk5NDI5IDYuMTE5MjkgNS44NzUgNy41IDUuODc1SDI0LjVDMjUuODgwNyA1Ljg3NSAyNyA2Ljk5NDI5IDI3IDguMzc1VjI1LjM3NUMyNyAyNi43NTU3IDI1Ljg4MDcgMjcuODc1IDI0LjUgMjcuODc1SDcuNUM2LjExOTI5IDI3Ljg3NSA1IDI2Ljc1NTcgNSAyNS4zNzVWOC4zNzVaIi8+JiN4YTs8L3N2Zz4=;strokeWidth=2;fontColor=#0066CC;direction=west;imageBackground=default;" parent="1" vertex="1">
                    <mxGeometry x="704" y="520.5" width="32" height="33" as="geometry"/>
                </mxCell>
                <mxCell id="50" value="COPY + SQL Proc&#10;(Data Pipeline)" style="shape=image;verticalLabelPosition=bottom;verticalAlign=top;imageAspect=0;aspect=fixed;image=data:image/svg+xml,PHN2ZyB4bWxucz0iaHR0cDovL3d3dy53My5vcmcvMjAwMC9zdmciIGZpbGw9Im5vbmUiIHZpZXdCb3g9IjAgMCAzMiAzMyIgaGVpZ2h0PSIzMyIgd2lkdGg9IjMyIj4mI3hhOzxwYXRoIGZpbGw9ImJsYWNrIiBkPSJNMiA5LjMyODEyQzIgNy42NzEyNyAzLjM0MzE1IDYuMzI4MTIgNSA2LjMyODEyQzYuNjU2ODUgNi4zMjgxMiA4IDcuNjcxMjcgOCA5LjMyODEzTDI0IDkuMzI4MTJDMjQgNy42NzEyNyAyNS4zNDMxIDYuMzI4MTIgMjcgNi4zMjgxMkMyOC42NTY5IDYuMzI4MTIgMzAgNy42NzEyNyAzMCA5LjMyODEzVjIzLjMyODFDMzAgMjQuOTg1IDI4LjY1NjkgMjYuMzI4MSAyNyAyNi4zMjgxQzI1LjM0MzEgMjYuMzI4MSAyNCAyNC45ODUgMjQgMjMuMzI4MUg4QzggMjQuOTg1IDYuNjU2ODUgMjYuMzI4MSA1IDI2LjMyODFDMy4zNDMxNSAyNi4zMjgxIDIgMjQuOTg1IDIgMjMuMzI4MVY5LjMyODEyWk02IDkuMzI4MTNDNiA4Ljc3NTg0IDUuNTUyMjggOC4zMjgxMiA1IDguMzI4MTJDNC40NDc3MSA4LjMyODEyIDQgOC43NzU4NCA0IDkuMzI4MTJWMjMuMzI4MUM0IDIzLjg4MDQgNC40NDc3MiAyNC4zMjgxIDUgMjQuMzI4MUM1LjU1MjI5IDI0LjMyODEgNiAyMy44ODA0IDYgMjMuMzI4MVY5LjMyODEzWk04IDIxLjMyODFMMjQgMjEuMzI4MVYxMS4zMjgxTDggMTEuMzI4MVYyMS4zMjgxWk0yOCA5LjMyODEzQzI4IDguNzc1ODQgMjcuNTUyMyA4LjMyODEyIDI3IDguMzI4MTJDMjYuNDQ3NyA4LjMyODEyIDI2IDguNzc1ODQgMjYgOS4zMjgxMlYyMy4zMjgxQzI2IDIzLjg4MDQgMjYuNDQ3NyAyNC4zMjgxIDI3IDI0LjMyODFDMjcuNTUyMyAyNC4zMjgxIDI4IDIzLjg4MDQgMjggMjMuMzI4MVY5LjMyODEzWiIvPiYjeGE7PC9zdmc+;dashed=1;dashPattern=8 8;labelBackgroundColor=default;strokeWidth=0.5;fontSize=13;fontColor=#000000;fillColor=none;imageBackground=default;fontFamily=Segoe UI;fontStyle=1" parent="1" vertex="1">
                    <mxGeometry x="588" y="359" width="32" height="33" as="geometry"/>
                </mxCell>
                <mxCell id="59" style="edgeStyle=none;html=1;entryX=1;entryY=0.75;entryDx=0;entryDy=0;" parent="1" source="54" target="39" edge="1">
                    <mxGeometry relative="1" as="geometry"/>
                </mxCell>
                <mxCell id="54" value="Azure Key Vault" style="aspect=fixed;html=1;points=[];align=center;image;fontSize=12;image=img/lib/azure2/security/Key_Vaults.svg;" parent="1" vertex="1">
                    <mxGeometry x="990.0000000000001" y="629.22" width="51.83" height="51.83" as="geometry"/>
                </mxCell>
                <mxCell id="57" style="edgeStyle=none;html=1;exitX=0;exitY=0.5;exitDx=0;exitDy=0;entryX=1;entryY=0.25;entryDx=0;entryDy=0;" parent="1" source="55" target="39" edge="1">
                    <mxGeometry relative="1" as="geometry"/>
                </mxCell>
                <mxCell id="58" value="" style="group" parent="1" vertex="1" connectable="0">
                    <mxGeometry x="957" y="297" width="120" height="216" as="geometry"/>
                </mxCell>
                <mxCell id="51" value="Azure Monitor" style="aspect=fixed;html=1;points=[];align=center;image;fontSize=12;image=img/lib/azure2/analytics/Log_Analytics_Workspaces.svg;" parent="58" vertex="1">
                    <mxGeometry x="33" y="21" width="57" height="57" as="geometry"/>
                </mxCell>
                <mxCell id="53" value="Azure App Insights" style="aspect=fixed;html=1;points=[];align=center;image;fontSize=12;image=img/lib/azure2/devops/Application_Insights.svg;" parent="58" vertex="1">
                    <mxGeometry x="43.40000000000009" y="114.17000000000002" width="36.2" height="51.83" as="geometry"/>
                </mxCell>
                <mxCell id="55" value="Observability" style="rounded=0;whiteSpace=wrap;html=1;verticalAlign=bottom;fillColor=none;fontStyle=1;strokeColor=#808080;dashed=1;" parent="58" vertex="1">
                    <mxGeometry width="120" height="216" as="geometry"/>
                </mxCell>
            </root>
        </mxGraphModel>
    </diagram>
</mxfile>
